<svg width="128" height="38" viewBox="0 0 128 38" fill="none" xmlns="http://www.w3.org/2000/svg">
<path d="M20.5559 37.8903C9.10016 37.8973 1.07905 30.5958 0.104324 21.0115C-0.870402 11.4096 5.07011 2.82492 14.3672 0.556469C19.8966 -0.793969 24.9864 0.343802 29.6013 3.64015C30.0869 3.98751 30.5016 4.3136 31.2211 4.22144C32.2667 4.09029 33.1387 5.04021 33.1316 6.0681C33.1245 7.0641 32.3341 7.92185 31.3629 7.9892C30.3456 8.06009 29.3957 7.25195 29.4312 6.16735C29.4524 5.48327 29.1937 5.15009 28.6939 4.78501C18.4327 -2.67962 3.84018 3.31051 1.74541 15.8579C0.210658 25.038 5.50608 33.566 14.3495 35.838C20.7827 37.4897 26.3723 35.7459 31.0545 31.0743C31.2176 30.9112 31.3523 30.7198 31.5224 30.5709C31.9158 30.2236 32.21 29.419 32.8906 29.9932C33.642 30.6312 32.9579 31.1629 32.5432 31.6166C28.8215 35.6962 24.2066 37.8371 20.5559 37.8903Z" fill="white"/>
<path d="M69.2213 18.0765C69.2213 22.1279 65.7548 25.6262 61.7957 25.566C57.7231 25.5057 54.4197 22.1137 54.4516 18.0234C54.4799 13.8905 57.8011 10.5304 61.8488 10.5339C65.8541 10.541 69.2213 13.9827 69.2213 18.0765ZM57.1489 18.0269C57.1276 20.6675 59.233 22.8084 61.8311 22.7942C64.4292 22.78 66.5417 20.6356 66.5311 18.0234C66.5204 15.4749 64.4257 13.3447 61.8843 13.3057C59.3004 13.2667 57.1666 15.3934 57.1489 18.0269Z" fill="white"/>
<path d="M119.602 25.5094C115.133 25.1195 112.297 21.6636 112.683 17.0806C112.992 13.4121 116.703 10.2646 120.393 10.5411C124.465 10.8459 127.708 14.5286 127.358 18.4488C126.978 22.7092 123.53 25.8532 119.602 25.5094ZM119.989 13.3093C117.359 13.3093 115.338 15.397 115.352 18.0943C115.367 20.7208 117.369 22.7659 119.95 22.7978C122.548 22.8262 124.678 20.6995 124.681 18.0695C124.681 15.4466 122.573 13.3058 119.989 13.3093Z" fill="white"/>
<path d="M25.9683 25.1513C25.8478 25.1974 25.7805 25.2399 25.7096 25.2435C22.75 25.41 22.7641 25.4065 21.7929 22.5922C20.8005 19.7176 19.7797 16.8502 18.688 13.7417C17.9224 15.8684 17.2277 17.7824 16.5436 19.6999C16.4302 20.0189 16.5259 20.2068 16.9087 20.1891C17.2525 20.1713 17.5999 20.1855 17.9472 20.1855C19.9676 20.1855 19.9427 20.1926 20.5488 22.1562C20.7154 22.695 20.6304 22.8332 20.0845 22.8226C18.8936 22.8013 17.7026 22.8439 16.5117 22.8049C15.8595 22.7836 15.381 22.8864 15.2782 23.6343C15.0833 25.0485 14.2433 25.5093 12.8822 25.2683C12.4391 25.1903 11.9713 25.2576 11.3581 25.2576C12.1272 23.1983 12.8503 21.2524 13.5875 19.31C14.5587 16.7474 15.5618 14.1989 16.5046 11.6292C16.7279 11.0195 16.9831 10.7431 17.7026 10.7466C20.5772 10.7608 20.5737 10.7324 21.5838 13.4191C22.9272 17.0132 24.2918 20.6038 25.6458 24.1978C25.7663 24.5133 25.862 24.8358 25.9683 25.1513Z" fill="white"/>
<path d="M35.1661 17.9777C35.1661 15.8758 35.1874 13.774 35.1519 11.6757C35.1413 11.027 35.2405 10.7222 36.0097 10.747C37.8883 10.8073 39.7668 10.7328 41.6454 10.7754C44.325 10.8356 46.3772 12.9091 46.3985 15.5178C46.4198 18.0486 44.4349 20.1256 41.8049 20.2816C40.8479 20.3383 39.8873 20.3277 38.9303 20.2816C38.3136 20.2497 38.1435 20.4624 38.1647 21.0543C38.2073 22.2381 38.1576 23.422 38.186 24.6058C38.2002 25.1021 38.03 25.2368 37.5338 25.2722C35.159 25.4352 35.159 25.453 35.159 23.1384C35.1661 21.4158 35.1661 19.6968 35.1661 17.9777ZM40.1532 17.5098C40.6884 17.5098 41.2236 17.5382 41.7553 17.5027C42.9285 17.4283 43.6799 16.6521 43.6976 15.5285C43.7153 14.4297 42.847 13.5755 41.6525 13.5365C41.1952 13.5223 40.7345 13.5329 40.2772 13.5329C38.1754 13.5329 38.1754 13.5329 38.1754 15.5781C38.1754 17.5134 38.1754 17.5134 40.1532 17.5098Z" fill="white"/>
<path d="M78.9827 18.0197C78.9827 15.9178 79.0146 13.8124 78.965 11.7105C78.9473 10.9768 79.128 10.7322 79.9078 10.7464C81.914 10.7783 81.914 10.7358 81.914 12.7207C81.914 15.6661 81.9565 18.6116 81.8892 21.5535C81.8679 22.4963 82.1798 22.7161 83.0588 22.67C84.4376 22.6026 85.8235 22.6842 87.2023 22.6381C87.8545 22.6168 88.1168 22.8082 88.0211 23.4604C87.9892 23.6837 87.9856 23.9247 88.0211 24.148C88.1558 25.0129 87.8687 25.3142 86.9329 25.2823C84.5546 25.2078 82.1727 25.2362 79.7944 25.2716C79.1422 25.2823 78.9544 25.0909 78.9685 24.4458C79.0075 22.3014 78.9827 20.1605 78.9827 18.0197Z" fill="white"/>
<path d="M96.7405 18.0979C96.7405 15.9571 96.7618 13.8162 96.7263 11.6754C96.7157 11.0232 96.822 10.7396 97.5876 10.7467C99.6718 10.7573 99.6753 10.7148 99.6753 12.76C99.6753 15.7409 99.7001 18.7253 99.6576 21.7062C99.647 22.4611 99.8596 22.7022 100.625 22.6703C102.043 22.61 103.468 22.688 104.886 22.6384C105.559 22.6136 105.903 22.7483 105.786 23.4961C105.733 23.8329 105.74 24.1873 105.786 24.5276C105.871 25.1656 105.577 25.2754 105.003 25.2684C102.507 25.24 100.012 25.2294 97.5167 25.2754C96.8043 25.2896 96.7228 25.0025 96.7299 24.4071C96.7582 22.3016 96.7405 20.1998 96.7405 18.0979Z" fill="white"/>
</svg>
