<svg width="63" height="60" viewBox="0 0 63 60" fill="none" xmlns="http://www.w3.org/2000/svg">
  <path d="M29.4061 46.2696C26.1386 51.1044 21.7528 54.5507 16.3943 56.808C12.1623 58.5914 7.72247 59.1692 3.17039 59.0404C2.18515 59.0113 0.900595 59.4769 0.293652 58.8367C-0.263405 58.2464 0.143995 56.9826 0.139838 56.0181C0.12321 52.9793 0.152309 49.9404 0.119052 46.9015C0.110738 46.253 0.289495 46.0576 0.954638 46.0576C3.36162 46.0535 5.78108 46.253 8.17144 45.7791C13.2639 44.7731 17.0843 41.9919 19.6659 37.4981C19.7574 37.3401 19.8696 37.1904 19.9736 37.0366C20.4184 37.4191 20.8632 37.7974 21.3122 38.1798C22.2475 39.1443 23.1621 40.1337 24.1224 41.0732C25.885 42.8067 27.5437 44.64 29.4061 46.2696Z" fill="#00AEEF" />
  <path d="M43.8729 46.1078C46.2259 46.0953 48.0342 45.1932 49.0319 42.9608C49.5682 41.7636 49.4934 40.5414 49.1608 39.3109C49.589 39.2901 49.7844 38.9367 50.0421 38.6831C51.4389 37.3279 52.8274 35.9644 54.2201 34.605C54.3448 34.6673 54.4695 34.7339 54.5942 34.7962C55.833 36.1889 57.1508 37.5025 58.5393 38.7413C59.1671 39.4314 59.7948 40.1215 60.4225 40.8074C60.1648 41.0319 59.8946 41.2439 59.6534 41.4851C55.2261 45.9083 50.7987 50.3356 46.3714 54.7588C46.0845 55.0457 45.7437 55.2826 45.461 55.557C44.3219 56.6628 43.0457 57.6439 42.1851 59.0157C42.1186 59.0157 42.0563 59.0157 41.9898 59.0157C41.7611 58.7621 41.5366 58.5044 41.2955 58.2591C39.8364 56.7667 38.3772 55.2743 36.9139 53.786C36.9638 53.2456 37.3254 52.9006 37.683 52.5472C39.5578 50.6765 41.4327 48.8058 43.2992 46.9268C43.5362 46.6898 43.8563 46.5027 43.8729 46.1078Z" fill="#00AEEF" />
  <path d="M21.308 38.1839C20.8631 37.8015 20.4142 37.4232 19.9694 37.0407C20.5846 35.4236 21.229 33.8189 21.5075 32.0937C21.9066 29.641 21.6488 27.2381 21.0918 24.8478C21.5449 24.6815 21.8816 24.3614 22.2142 24.0288C24.8582 21.3766 27.5063 18.7285 30.1627 16.0845C30.4204 15.8268 30.6158 15.4693 31.044 15.4402C32.9064 18.7119 34.0039 22.2288 34.4237 25.9661C33.6547 26.0575 33.1724 26.6187 32.6777 27.1093C29.2481 30.514 25.8351 33.9353 22.4221 37.3566C22.0937 37.6892 21.7611 38.0135 21.308 38.1839Z" fill="#00AEEF" />
  <path d="M40.8632 0.0508783C44.8541 -0.11125 48.7867 0.0550322 52.4409 1.95069C52.603 2.03383 52.7526 2.15023 52.9065 2.25C52.8981 2.68235 52.5573 2.89436 52.2995 3.1521C49.3272 6.12862 46.3506 9.10097 43.3824 12.0775C43.1247 12.3352 42.7713 12.5348 42.7422 12.9588C40.5972 12.9671 38.4479 12.9713 36.3028 12.9962C35.9536 13.0004 35.7291 12.9006 35.5587 12.5805C34.7855 11.1255 33.8085 9.79522 32.8981 8.42752C35.2885 6.04548 37.6788 3.66343 40.0734 1.28554C40.4267 0.932187 40.7967 0.58715 40.8632 0.0508783Z" fill="#00AEEF" />
  <path d="M31.044 15.4363C30.6158 15.4695 30.4204 15.827 30.1627 16.0806C27.5063 18.7246 24.8582 21.3727 22.2143 24.0249C21.8817 24.3575 21.545 24.6776 21.0918 24.8439C20.0775 21.9214 18.5726 19.3107 16.228 17.2446C15.6002 16.6917 14.9268 16.1887 14.2741 15.6649C14.536 15.4446 14.8145 15.245 15.0557 15.0039C17.1176 12.9503 19.1629 10.8842 21.2332 8.83888C22.0106 8.07396 22.709 7.22175 23.6027 6.57739C26.7372 8.98438 29.1982 11.9526 31.044 15.4363Z" fill="#00AEEF" />
  <path d="M21.308 38.1842C21.757 38.0137 22.0896 37.6895 22.4222 37.3569C25.8352 33.9356 29.2482 30.5142 32.6778 27.1095C33.1725 26.619 33.6506 26.0578 34.4238 25.9663C35.2927 33.3619 33.6672 40.1463 29.4062 46.2739C27.5438 44.6443 25.8809 42.8069 24.1183 41.0775C23.158 40.1339 22.2434 39.1486 21.308 38.1842Z" fill="#00AEEF" />
  <path d="M42.1851 59.0196C43.0415 57.6477 44.3219 56.6666 45.4609 55.5608C45.7436 55.2864 46.0845 55.0495 46.3714 54.7626C50.7987 50.3394 55.2219 45.9121 59.6534 41.4889C59.8945 41.2478 60.1648 41.0358 60.4225 40.8113C61.0461 41.3725 61.6696 41.9379 62.2891 42.4991C61.9357 47.3505 59.8613 51.3579 56.2487 54.5548C52.2329 58.1133 47.4439 59.3397 42.1851 59.0196Z" fill="#00AEEF" />
  <path d="M23.607 6.58142C22.7132 7.22578 22.0148 8.078 21.2374 8.84291C19.1671 10.8882 17.1218 12.9543 15.0599 15.008C14.8188 15.2491 14.5402 15.4486 14.2783 15.6689C11.1314 13.7276 7.69757 12.867 4.01434 12.9626C4.03097 12.5677 4.35107 12.3806 4.58803 12.1437C6.03887 10.6845 7.4814 9.2129 8.95719 7.77868C10.5203 6.26133 11.9586 4.61925 13.6548 3.23077C14.1287 2.84415 14.7813 2.48664 14.7398 1.69263C18.0239 2.71944 20.9755 4.35735 23.607 6.58142Z" fill="#00AEEF" />
  <path d="M14.736 1.69271C14.7776 2.48672 14.1249 2.84008 13.651 3.23085C11.959 4.61933 10.5207 6.26141 8.95342 7.77876C7.47763 9.21298 6.03511 10.6804 4.58426 12.1438C4.34731 12.3807 4.02721 12.5678 4.01058 12.9627C2.91309 12.9752 1.81976 12.9669 0.722279 13.0001C0.264993 13.0168 0.127808 12.8422 0.127808 12.4015C0.140279 8.45638 0.136122 4.51125 0.131965 0.561964C0.131965 0.250179 0.173536 0.0215367 0.576779 0.0173796C5.34086 -0.0366632 10.0966 -0.0699223 14.657 1.62619C14.6944 1.63866 14.7111 1.66776 14.736 1.69271Z" fill="#00AEEF" />
  <path d="M61.1709 11.6738C62.1603 14.0226 62.5095 16.4712 62.2933 19.007C61.7529 19.0611 61.4078 19.4227 61.0503 19.7803C58.4438 22.3909 55.8372 25.0016 53.2224 27.604C52.2496 28.5726 51.2519 29.5163 50.2667 30.4724C49.7678 30.0318 49.2648 29.5911 48.7659 29.1504C48.4999 28.8553 48.2214 28.5726 47.9719 28.265C47.4357 27.6123 46.6167 27.2049 46.3174 26.3485C46.4088 26.2238 46.4878 26.0825 46.5959 25.9744C51.1729 21.3932 55.7499 16.8204 60.3228 12.2392C60.5681 11.9898 60.8591 11.8193 61.1709 11.6738Z" fill="#00AEEF" />
  <path d="M61.1708 11.674C60.859 11.8195 60.568 11.99 60.3186 12.2394C55.7457 16.8206 51.1645 21.3976 46.5917 25.9746C46.4836 26.0827 46.4046 26.224 46.3132 26.3487C44.9662 25.4965 43.9561 24.291 42.9417 23.0937C43.345 23.0729 43.7482 23.0313 44.1514 23.0355C46.1593 23.0604 47.7515 22.2706 48.7451 20.5163C49.7511 18.7328 49.6306 16.9328 48.5539 15.1993C48.4873 15.0953 48.4333 14.9831 48.3751 14.875C48.8116 14.8709 49.0153 14.5175 49.2772 14.2598C51.8047 11.7405 54.324 9.21715 56.8473 6.69792C57.1092 6.43602 57.3337 6.11592 57.712 5.99536C59.2751 7.63743 60.4516 9.51646 61.1708 11.674Z" fill="#00AEEF" />
  <path d="M57.708 5.99509C57.3297 6.1198 57.1093 6.43575 56.8433 6.69765C54.3199 9.21688 51.8007 11.7403 49.2731 14.2595C49.0154 14.5172 48.8075 14.8706 48.371 14.8747C46.8744 13.1163 44.8582 12.8918 42.7422 12.9625C42.7713 12.5343 43.1247 12.3347 43.3824 12.0811C46.3506 9.10047 49.3272 6.13227 52.2995 3.15576C52.5573 2.89802 52.8981 2.686 52.9065 2.25366C54.428 2.99363 55.7998 3.92899 56.9098 5.23018C57.1467 5.50455 57.4377 5.73735 57.708 5.99509Z" fill="#00AEEF" />
  <path d="M36.9139 53.786C38.3731 55.2785 39.8364 56.7667 41.2956 58.2591C41.5325 58.5044 41.757 58.7621 41.9898 59.0157C36.016 59.024 30.0422 59.0365 24.0684 59.0407C24.0226 59.0407 23.9728 58.9866 23.8356 58.9076C25.3238 57.9307 26.7289 56.9164 28.0343 55.7731C29.9008 54.1436 31.5388 52.3019 33.0977 50.3855C33.5217 50.3897 33.7379 50.7139 33.9998 50.9675C34.9726 51.907 35.9412 52.8465 36.9139 53.786Z" fill="#00AEEF" />
  <path d="M42.9417 23.0974C43.956 24.2947 44.9662 25.5003 46.3131 26.3525C46.6124 27.2089 47.4356 27.6162 47.9677 28.2689C48.2171 28.5765 48.4956 28.8592 48.7617 29.1544C47.527 30.5179 46.2217 31.8025 44.8581 33.0413C43.8812 33.9226 42.7588 34.7083 42.1726 35.9679C41.3329 36.1342 40.2977 36.3296 39.6991 35.9513C39.0298 35.5273 39.67 34.5046 39.7448 33.7522C40.0857 30.3683 40.0608 27.001 39.4663 23.6503C39.404 23.2928 39.3624 23.0268 39.8571 23.0392C40.8839 23.06 41.9149 23.0725 42.9417 23.0974Z" fill="#00AEEF" />
  <path d="M50.2667 30.4727C51.2519 29.5166 52.2496 28.5729 53.2224 27.6043C55.8372 25.0019 58.4438 22.3912 61.0503 19.7806C61.4078 19.423 61.7528 19.0614 62.2933 19.0073C62.2475 22.358 61.1625 25.3927 59.2502 28.0907C58.5352 29.1009 58.1777 29.8782 59.1463 30.8385C58.689 30.7887 58.4105 31.0714 58.1153 31.3624C56.9472 32.5139 55.7666 33.6571 54.5901 34.8003C54.4654 34.7379 54.3407 34.6714 54.2159 34.6091C53.9873 34.3513 53.7711 34.0853 53.5342 33.84C52.4492 32.7134 51.3558 31.5952 50.2667 30.4727Z" fill="#00AEEF" />
  <path d="M40.8631 0.0505371C40.7966 0.586808 40.4266 0.931845 40.0691 1.2852C37.6788 3.66309 35.2884 6.04513 32.8939 8.42718C30.2915 5.24281 27.394 2.37854 23.8895 0.0505371C29.5516 0.0505371 35.2094 0.0505371 40.8631 0.0505371Z" fill="#00AEEF" />
  <path d="M50.2666 30.4729C51.3557 31.5953 52.4491 32.7136 53.5341 33.836C53.771 34.0813 53.9914 34.3473 54.2159 34.605C52.8232 35.9644 51.4347 37.328 50.0379 38.6832C49.7802 38.9326 49.5848 39.2901 49.1566 39.3109C48.0342 36.8707 46.1136 35.8356 43.4655 36.0351C43.0373 36.0684 42.6008 35.9894 42.1726 35.9644C42.7546 34.7048 43.8812 33.9233 44.8581 33.0378C46.2258 31.8031 47.5312 30.5144 48.7617 29.1509C49.2647 29.5915 49.7636 30.0322 50.2666 30.4729Z" fill="#00AEEF" />
  <path d="M36.914 53.786C35.9412 52.8464 34.9726 51.9028 33.9998 50.9674C33.7379 50.7138 33.5217 50.3896 33.0977 50.3854C33.9167 49.0967 34.7481 47.8163 35.5421 46.5151C35.7541 46.1659 35.9952 46.0745 36.3777 46.0745C38.8761 46.0952 41.3746 46.0994 43.873 46.1119C43.8564 46.5068 43.5363 46.6939 43.2993 46.9308C41.4328 48.8099 39.5579 50.6806 37.683 52.5513C37.3255 52.9005 36.968 53.2455 36.914 53.786Z" fill="#00AEEF" />
  <path d="M54.5901 34.7998C55.7666 33.6566 56.9472 32.5134 58.1153 31.3618C58.4105 31.0708 58.689 30.7881 59.1463 30.838C60.356 32.4136 61.1417 34.1887 61.6655 36.0927C61.3662 36.0927 61.1417 36.2382 60.9339 36.4419C60.1399 37.2151 59.3375 37.98 58.5352 38.7449C57.1467 37.5061 55.8289 36.1924 54.5901 34.7998Z" fill="#00AEEF" />
  <path d="M58.5353 38.7453C59.3334 37.9762 60.1399 37.2154 60.9339 36.4422C61.1418 36.2385 61.3663 36.093 61.6656 36.093C62.3016 38.1882 62.5511 40.3208 62.2892 42.5033C61.6656 41.9421 61.042 41.3767 60.4226 40.8155C59.7907 40.1254 59.163 39.4354 58.5353 38.7453Z" fill="#00AEEF" />
</svg>
