<svg width="67" height="63" viewBox="0 0 67 63" fill="none" xmlns="http://www.w3.org/2000/svg">
<path d="M46.4239 43.9987C48.8964 43.7452 50.7721 41.6341 50.6868 39.1004C50.6017 36.567 48.47 34.5402 45.9123 34.5402H45.7419C43.0985 34.6247 41.0524 36.8203 41.1377 39.4382C41.223 40.705 41.7345 41.8028 42.5018 42.5629C39.603 48.2212 35.1695 52.3592 28.5192 55.8216C24.0004 58.1862 19.3112 59.0308 14.622 58.4397C10.7852 57.933 7.80105 56.2441 5.92505 53.457C3.19689 49.319 2.94119 44.843 5.24327 40.3672C6.86331 37.1581 9.42082 34.7934 11.0409 33.6111C10.6998 32.5133 10.1882 30.6555 9.93248 29.3044C-2.43032 38.1716 -1.1513 50.1635 2.60017 55.8216C5.41365 60.0443 11.1262 62.6622 17.4354 62.6622C19.1405 62.6622 20.8456 62.4932 22.551 62.0712C33.4644 59.9598 41.7347 53.5415 46.4239 43.9987ZM61.4298 33.5269C54.9499 26.0107 45.4009 21.8727 34.4875 21.8727H33.1234C32.356 20.3526 30.736 19.3391 28.9456 19.3391H28.7749C26.1321 19.4236 24.086 21.6192 24.171 24.2373C24.2563 26.7707 26.3878 28.7976 28.9456 28.7976H29.1159C30.9917 28.7131 32.6117 27.5308 33.2938 25.9262H34.8285C41.3084 25.9262 47.447 27.784 52.9891 31.4155C57.252 34.2024 60.3214 37.8339 62.0265 42.2251C63.4759 45.772 63.3906 49.2345 61.8559 52.1904C59.4688 56.6661 55.4616 59.1153 50.1754 59.1153C46.7649 59.1153 43.5251 58.1017 41.8198 57.3417C40.882 58.1862 39.1767 59.5373 37.983 60.3821C41.6494 62.0709 45.4009 63 48.9817 63C57.1667 63 63.2202 58.524 65.5223 54.0483C67.9948 49.15 67.8241 40.705 61.4298 33.5269ZM18.1175 45.434C18.2028 47.9677 20.3342 49.9943 22.892 49.9943H23.0627C25.7057 49.91 27.7519 47.7141 27.6665 45.0962C27.5815 42.5626 25.4498 40.536 22.892 40.536H22.7216C22.551 40.536 22.295 40.536 22.1249 40.6202C18.6291 34.8777 17.1797 28.6286 17.6914 21.8725C18.0322 16.8054 19.7375 12.4139 22.7216 8.78247C25.1941 5.6578 29.9686 4.13772 33.2087 4.05347C42.2461 3.88446 46.0826 15.0318 46.3386 19.5078C47.447 19.7611 49.3227 20.3524 50.6017 20.7746C49.5784 7.0939 41.0524 0 32.8677 0C25.1941 0 18.1175 5.48931 15.3037 13.5965C11.3819 24.4061 13.9397 34.7934 18.7142 42.9851C18.2881 43.5762 18.0322 44.5052 18.1175 45.4343V45.434Z" fill="white"/>
</svg>
