<svg width="67" height="76" viewBox="0 0 67 76" fill="none" xmlns="http://www.w3.org/2000/svg">
<path d="M33.4392 0.78808C44.1208 0.78808 54.8024 0.802637 65.484 0.763794C66.5327 0.758939 66.8289 0.948301 66.7221 2.06016C65.2509 18.0437 63.8283 34.0322 62.396 50.0206C61.8765 55.8129 61.3521 61.6101 60.8715 67.4073C60.8083 68.1599 60.5559 68.4997 59.8082 68.7085C51.2823 71.0633 42.7661 73.4473 34.25 75.8409C33.6431 76.0109 33.109 75.9866 32.5118 75.8167C24.083 73.4376 15.6494 71.0633 7.2061 68.7279C6.41469 68.5094 6.15251 68.155 6.08454 67.349C4.74448 52.0792 3.40442 36.8045 1.99154 21.5395C1.37492 14.9024 0.976787 8.24092 0.073706 1.63289C-0.086518 0.448206 0.729168 0.797785 1.2681 0.797785C11.9886 0.788074 22.7139 0.78808 33.4392 0.78808ZM33.4634 38.6786C33.4634 48.9184 33.478 59.1582 33.444 69.3931C33.4392 70.4516 33.6916 70.7089 34.7307 70.3981C37.2069 69.6601 39.7073 69.0144 42.1981 68.3346C46.2814 67.2179 50.3646 66.0915 54.4528 64.9894C55.2928 64.7612 55.6909 64.3922 55.7152 63.4163C55.7491 62.1976 55.8802 60.9741 55.9773 59.7505C56.2638 56.1771 56.628 52.6084 56.9484 49.035C57.1426 46.8889 57.3077 44.7429 57.5068 42.5969C57.8224 39.1496 58.1671 35.7072 58.4778 32.26C58.6866 29.944 58.8322 27.628 59.0362 25.3121C59.3469 21.826 59.6965 18.3399 60.0121 14.8538C60.2111 12.6689 60.3325 10.4743 60.5656 8.28947C60.7404 6.63868 60.7986 6.64354 59.1478 6.64354C51.1463 6.64354 43.1449 6.64354 35.1482 6.64354C33.4586 6.64354 33.4586 6.6484 33.4586 8.34289C33.4634 18.4564 33.4634 28.5651 33.4634 38.6786ZM30.8319 37.4891C30.8319 30.4781 30.8173 23.4671 30.8513 16.456C30.8562 15.5627 30.6037 15.2665 29.7055 15.3151C28.3897 15.3879 27.0593 15.417 25.7484 15.3102C24.554 15.2082 24.2773 15.6209 24.2821 16.7814C24.3258 27.4484 24.2967 38.1106 24.3307 48.7776C24.3355 49.8215 24.1413 50.0691 23.0731 49.7487C19.5676 48.7096 16.0281 47.7968 12.5129 46.7821C11.6487 46.5345 11.3962 46.7141 11.4205 47.6124C11.4739 49.4816 11.4836 51.3509 11.4156 53.2202C11.3865 54.0699 11.7021 54.3806 12.4935 54.5942C18.2373 56.1528 23.9762 57.7356 29.6957 59.3767C30.8027 59.6923 30.8464 59.2941 30.8416 58.3959C30.8173 51.4237 30.8319 44.4564 30.8319 37.4891Z" fill="white"/>
<path d="M33.4634 38.6787C33.4634 28.5651 33.4634 18.4564 33.4634 8.3429C33.4634 6.64841 33.4682 6.64355 35.153 6.64355C43.1545 6.64355 51.156 6.64355 59.1526 6.64355C60.7986 6.64355 60.7452 6.63869 60.5704 8.28949C60.3373 10.4744 60.2111 12.669 60.0169 14.8538C59.7013 18.3399 59.3517 21.826 59.041 25.3121C58.8322 27.628 58.6914 29.944 58.4826 32.26C58.1767 35.7072 57.832 39.1496 57.5115 42.5969C57.3125 44.7429 57.1474 46.8889 56.9532 49.035C56.6279 52.6084 56.2686 56.1771 55.9821 59.7506C55.885 60.9692 55.7539 62.1976 55.7199 63.4163C55.6908 64.3922 55.2975 64.7612 54.4576 64.9894C50.3694 66.0916 46.2862 67.218 42.2029 68.3347C39.7121 69.0144 37.2068 69.6602 34.7354 70.3982C33.6916 70.7089 33.4439 70.4516 33.4488 69.3931C33.4731 59.1534 33.4634 48.9136 33.4634 38.6787ZM36.1969 29.7158C36.1969 34.1341 36.2163 38.5524 36.1823 42.9659C36.1775 43.8447 36.3134 44.1311 37.3087 43.9369C40.9793 43.2135 44.6742 42.626 48.3448 41.9268C49.175 41.7715 49.4081 41.9608 49.345 42.7814C49.2284 44.3059 49.1313 45.8305 49.1168 47.3599C49.1071 48.1804 48.8303 48.53 48.0098 48.7339C44.4217 49.6273 40.858 50.6129 37.2796 51.5306C36.5222 51.7248 36.1338 52.0015 36.1726 52.8852C36.2503 54.7108 36.2503 56.5412 36.1775 58.3619C36.1338 59.4447 36.5076 59.5224 37.4398 59.2747C42.4893 57.925 47.5437 56.5946 52.6223 55.3517C53.7973 55.0652 54.4042 54.5845 54.3313 53.3659C54.3216 53.1959 54.3508 53.026 54.3653 52.8561C54.846 46.6802 55.3073 40.4994 55.8365 34.3235C55.9142 33.3913 55.5597 33.3524 54.846 33.4447C51.1803 33.9205 47.5048 34.338 43.8439 34.8576C42.8486 34.9984 42.601 34.7653 42.6156 33.7797C42.6738 30.682 42.6787 27.5795 42.6107 24.477C42.5864 23.4379 42.8438 23.0981 43.9313 23.1175C47.801 23.1855 51.6755 23.1224 55.5452 23.1612C56.3803 23.1709 56.7687 22.9864 56.8172 22.0785C56.9192 20.1704 57.0551 18.2622 57.3125 16.3735C57.4387 15.451 57.1668 15.3005 56.3414 15.3054C50.0004 15.3296 43.6643 15.3345 37.3233 15.3005C36.4299 15.2956 36.1678 15.5578 36.1775 16.4464C36.2163 20.8792 36.1969 25.2975 36.1969 29.7158Z" fill="#D6D6D6"/>
<path d="M30.8319 37.4892C30.8319 44.4565 30.8174 51.4287 30.8465 58.396C30.8514 59.2991 30.8028 59.6972 29.7007 59.3768C23.9811 57.7357 18.2422 56.1529 12.4984 54.5943C11.707 54.3807 11.3914 54.07 11.4205 53.2203C11.4885 51.351 11.4788 49.4817 11.4254 47.6124C11.4011 46.7094 11.6536 46.5346 12.5178 46.7822C16.033 47.7969 19.5725 48.7097 23.0781 49.7488C24.1462 50.0644 24.3404 49.8216 24.3356 48.7777C24.3016 38.1107 24.3356 27.4485 24.287 16.7814C24.2822 15.621 24.5541 15.2132 25.7533 15.3103C27.0642 15.422 28.3946 15.388 29.7104 15.3151C30.6086 15.2666 30.8611 15.5628 30.8562 16.4561C30.8174 23.4672 30.8319 30.4782 30.8319 37.4892Z" fill="#00AEEF"/>
<path d="M36.1969 29.7157C36.1969 25.2974 36.2211 20.8791 36.1774 16.4656C36.1677 15.5771 36.4348 15.3149 37.3233 15.3198C43.6643 15.3538 50.0004 15.3489 56.3414 15.3246C57.1668 15.3198 57.4387 15.4703 57.3124 16.3928C57.0503 18.2815 56.9192 20.1945 56.8172 22.0977C56.7687 23.0008 56.3802 23.1902 55.5451 23.1805C51.6755 23.1416 47.801 23.2047 43.9313 23.1368C42.8389 23.1173 42.5864 23.4572 42.6107 24.4962C42.6786 27.5939 42.6689 30.6964 42.6155 33.7989C42.5961 34.7846 42.8486 35.0176 43.8439 34.8768C47.5048 34.3573 51.1802 33.9397 54.846 33.4639C55.5597 33.3717 55.919 33.4105 55.8364 34.3427C55.3072 40.5186 54.846 46.6946 54.3653 52.8753C54.3507 53.0453 54.3216 53.2152 54.3313 53.3851C54.4041 54.6038 53.7972 55.0845 52.6223 55.3709C47.5436 56.6139 42.4893 57.9442 37.4398 59.294C36.5124 59.5416 36.1337 59.4639 36.1774 58.3812C36.2503 56.5556 36.2503 54.7252 36.1726 52.9045C36.1337 52.0208 36.5222 51.744 37.2796 51.5498C40.8628 50.6322 44.4265 49.6466 48.0097 48.7532C48.8303 48.5493 49.107 48.1948 49.1167 47.3792C49.1313 45.8497 49.2284 44.3252 49.3449 42.8006C49.4081 41.9801 49.1701 41.7859 48.3448 41.9461C44.6693 42.6404 40.9744 43.2328 37.3087 43.9562C36.3134 44.1504 36.1774 43.8639 36.1823 42.9851C36.2163 38.5523 36.1969 34.134 36.1969 29.7157Z" fill="#00AEEF"/>
</svg>
