<svg width="58" height="64" viewBox="0 0 58 64" fill="none" xmlns="http://www.w3.org/2000/svg">
<path d="M28.9452 0.00366315C35.6921 -0.0291778 42.3443 0.572907 48.73 2.95935C48.8431 3.00314 48.9636 3.02868 49.0767 3.06517C53.7693 4.57586 56.4695 7.60452 57.1701 12.6547C58.5239 22.4559 58.0751 32.0382 53.5722 40.9746C48.4381 51.1699 40.2096 58.2964 29.9632 63.1787C29.1568 63.5619 28.4817 63.4488 27.741 63.0839C11.6051 55.1874 -0.735788 41.0841 0.0341508 19.6681C0.150919 16.3986 0.534063 13.1802 1.36239 9.99826C2.0557 7.34179 3.57003 5.55379 6.00391 4.33502C10.2805 2.18941 14.8418 1.11661 19.5307 0.496278C22.6543 0.0802921 25.7961 -0.0218798 28.9452 0.00366315ZM4.58445 20.9598C4.56256 23.5652 4.74136 26.1633 5.17194 28.7286C5.54414 30.9289 6.02945 33.1147 6.79209 35.2201C10.1346 44.4484 16.5276 51.148 24.6758 56.2201C29.7589 59.3838 28.1059 59.402 33.0977 56.2821C48.1681 46.8604 54.926 33.3153 53.0614 15.4827C52.5761 10.8266 50.7151 7.77238 45.9969 6.77985C45.3474 6.64484 44.7234 6.40035 44.0812 6.2325C36.4292 4.25839 28.6532 4.11243 20.859 4.91156C16.5896 5.34944 12.4079 6.28359 8.47793 8.17012C6.85777 8.94735 5.96012 10.0712 5.56238 11.7936C4.86542 14.8149 4.59175 17.8728 4.58445 20.9598Z" fill="white"/>
<path d="M4.58085 20.9599C4.5918 17.8692 4.86547 14.815 5.56243 11.7936C5.96017 10.0713 6.85783 8.94742 8.47798 8.17019C12.4079 6.28731 16.5897 5.34951 20.859 4.91163C28.6533 4.1125 36.4293 4.25481 44.0812 6.23257C44.7235 6.39678 45.3511 6.64126 45.997 6.77992C50.7151 7.77245 52.5725 10.823 53.0614 15.4828C54.9261 33.3118 48.1681 46.8605 33.0941 56.2822C28.1023 59.4021 29.7589 59.3839 24.6722 56.2202C16.5277 51.1481 10.1346 44.4485 6.7885 35.2202C6.02585 33.1111 5.54054 30.9253 5.16834 28.7286C4.74141 26.167 4.56261 23.569 4.58085 20.9599ZM30.0217 54.1658C30.0144 53.6951 30.0071 53.2244 29.9998 52.7536C29.9815 52.5712 29.9669 52.3924 29.9487 52.2099C29.9341 51.6078 29.9158 51.0021 29.9012 50.4C30.153 49.6812 30.4048 48.9587 30.6566 48.2398C35.1667 45.0579 37.8196 40.6973 38.8559 35.3114C39.4543 32.6075 39.5455 29.8963 38.9544 27.1742C38.5348 24.0105 37.4364 21.0949 36.0133 18.2341C34.2399 14.6763 31.0653 12.2279 29.0437 8.88904C27.2995 10.3632 25.5407 11.8228 24.2927 13.7787C23.344 14.7493 22.4938 15.7893 22.096 17.1212C21.41 17.9896 20.9576 18.9712 20.6985 20.044C19.8811 21.5182 19.4615 23.1128 19.2681 24.7731C16.9108 32.9505 20.1037 42.2555 27.2411 47.999C27.5294 48.2508 27.8177 48.5025 28.1059 48.758C28.3066 49.4805 28.5073 50.203 28.708 50.9291C28.7336 51.4108 28.7591 51.8925 28.7846 52.3741C28.7591 52.9799 28.3869 53.644 29.0729 54.133C29.27 54.1913 29.4707 54.2461 29.6677 54.3045C29.8648 54.4614 30.0253 54.527 30.0217 54.1658Z" fill="#00AEEF"/>
<path d="M29.0436 8.88501C31.0615 12.2202 34.2398 14.6687 36.0132 18.2301C37.4363 21.0909 38.5347 24.0065 38.9543 27.1701C38.6186 27.754 37.9946 27.8197 37.5166 27.6518C35.6155 26.984 34.0501 28.0568 32.4226 28.6078C31.4264 28.9435 30.4777 29.1844 29.4414 29.1369C29.4231 28.1627 29.4012 27.192 29.383 26.2177C29.6494 20.4304 28.967 14.665 29.0436 8.88501Z" fill="white"/>
<path d="M29.4413 29.1372C30.4777 29.1847 31.4264 28.9475 32.4226 28.6081C34.05 28.0608 35.6191 26.9843 37.5166 27.6521C37.9909 27.8199 38.6149 27.7506 38.9543 27.1704C39.5454 29.8889 39.4542 32.6001 38.8558 35.3077C35.7395 36.1469 32.4846 36.3768 29.434 37.4898C29.4231 36.3951 29.4085 35.304 29.3976 34.2093C29.4121 32.5198 29.4267 30.8267 29.4413 29.1372Z" fill="white"/>
<path d="M29.4377 37.4897C32.4882 36.3731 35.7431 36.1432 38.8594 35.3076C37.8267 40.6935 35.1703 45.0541 30.6601 48.236C29.8318 47.9185 29.9558 46.7436 29.0728 46.4808C29.0655 44.9337 29.0618 43.3901 29.0545 41.843C29.1385 40.3907 29.5873 38.9676 29.4377 37.4897Z" fill="white"/>
<path d="M29.051 41.843C29.0583 43.3902 29.0619 44.9337 29.0692 46.4809C28.2628 47.0319 28.5656 48.0573 28.1059 48.7542C27.8176 48.5025 27.5293 48.2507 27.2411 47.9952C27.2192 47.634 27.2739 47.2509 27.1681 46.9188C24.8437 39.7887 22.5047 32.6658 20.1584 25.543C20.0233 25.127 19.7716 24.7876 19.268 24.7694C19.4651 23.1091 19.881 21.5145 20.6984 20.0403C21.3844 20.9051 21.7676 21.9086 22.1106 22.9412C24.0226 28.7067 25.9457 34.4648 27.8723 40.2229C28.0913 40.887 28.0986 41.7153 29.051 41.843Z" fill="white"/>
<path d="M19.2643 24.7732C19.7679 24.7951 20.0197 25.1344 20.1547 25.5468C22.501 32.6696 24.84 39.7925 27.1644 46.9226C27.2739 47.2547 27.2191 47.6378 27.2374 47.9991C20.0999 42.2519 16.9071 32.9469 19.2643 24.7732Z" fill="white"/>
<path d="M29.051 41.843C28.0986 41.7117 28.0913 40.887 27.8687 40.2265C25.9457 34.4684 24.0227 28.7067 22.107 22.9449C21.764 21.9122 21.3808 20.9051 20.6948 20.0439C20.9539 18.9711 21.4063 17.9896 22.0924 17.1211C23.0338 17.2379 23.0885 18.0333 23.3184 18.7048C24.9605 23.4849 26.6171 28.2578 28.2409 33.0453C28.4489 33.6583 28.6314 34.1947 29.394 34.213C29.405 35.3077 29.4195 36.3987 29.4305 37.4934C29.5874 38.9676 29.1386 40.3907 29.051 41.843Z" fill="white"/>
<path d="M29.0437 8.88501C28.9671 14.665 29.6495 20.4304 29.3831 26.2141C28.7518 26.298 28.3249 26.0316 28.1278 25.4332C26.847 21.547 25.5699 17.6608 24.2927 13.7747C25.5407 11.8225 27.2995 10.3592 29.0437 8.88501Z" fill="white"/>
<path d="M24.2928 13.7788C25.5699 17.665 26.8471 21.5512 28.1279 25.4374C28.3249 26.0321 28.7518 26.2985 29.3831 26.2182C29.4014 27.1925 29.4233 28.1632 29.4415 29.1374C29.4269 30.8306 29.4123 32.5201 29.3977 34.2132C28.6314 34.1986 28.4526 33.6622 28.2446 33.0455C26.6208 28.2617 24.9605 23.4851 23.3221 18.705C23.0922 18.0335 23.0375 17.2344 22.0961 17.1213C22.4938 15.7858 23.344 14.7494 24.2928 13.7788Z" fill="white"/>
<path d="M28.1059 48.7545C28.5657 48.0539 28.2628 47.0322 29.0693 46.4812C29.956 46.7439 29.8319 47.9189 30.6566 48.2364C30.4048 48.9589 30.153 49.6814 29.9012 50.4002C29.5035 50.5754 29.1058 50.7505 28.708 50.9257C28.5073 50.2032 28.3066 49.4807 28.1059 48.7545Z" fill="white"/>
<path d="M28.7117 50.9251C29.1094 50.75 29.5072 50.5748 29.9049 50.3997C29.9195 51.0017 29.9378 51.6038 29.9524 52.2096C29.9706 52.392 29.9852 52.5708 30.0034 52.7533C30.0107 53.224 30.018 53.6947 30.0253 54.1654C29.9086 54.2092 29.7918 54.253 29.675 54.3004C29.478 54.2421 29.2773 54.1873 29.0802 54.1289C28.9708 53.5451 29.2554 52.8956 28.792 52.3701C28.7628 51.8885 28.7372 51.4068 28.7117 50.9251Z" fill="white"/>
<path d="M28.7884 52.3706C29.2518 52.8961 28.9672 53.5456 29.0766 54.1294C28.3906 53.6405 28.7628 52.9763 28.7884 52.3706Z" fill="white"/>
<path d="M29.9997 52.7537C29.9814 52.5712 29.9669 52.3924 29.9486 52.21C29.9669 52.3888 29.9851 52.5712 29.9997 52.7537Z" fill="white"/>
<path d="M29.6713 54.2974C29.7881 54.2536 29.9049 54.2098 30.0216 54.1624C30.0253 54.5273 29.8647 54.4616 29.6713 54.2974Z" fill="#A9A68A"/>
</svg>
