<svg width="123" height="64" viewBox="0 0 123 64" fill="none" xmlns="http://www.w3.org/2000/svg">
<path d="M13.9047 54.3919C14.5023 53.0671 15.0701 51.7822 15.6478 50.4974C17.0622 47.3299 18.4865 44.1625 19.8909 40.9852C20.4686 39.6804 21.3949 38.8238 22.8193 38.5748C23.6659 38.4254 24.5125 38.505 25.3392 38.7142C25.6779 38.7939 26.0265 38.8935 26.3552 39.013C27.3911 39.4015 27.8393 40.1983 27.909 41.2541C27.919 41.4633 27.919 41.6724 27.919 41.8916C27.919 46.8817 27.919 51.8719 27.919 56.872C27.919 57.4497 28.0285 57.4597 27.3612 57.4597C26.3751 57.4597 25.389 57.4597 24.393 57.4597C23.8153 57.4597 23.885 57.4597 23.885 56.9318C23.885 52.101 23.885 47.2702 23.885 42.4294C23.885 42.2402 23.885 42.041 23.885 41.8119C23.6659 41.9115 23.646 42.1107 23.5663 42.2701C21.873 46.0251 20.1798 49.7902 18.4865 53.5552C18.1777 54.2425 17.859 54.9397 17.5502 55.627C16.9924 56.862 16.0661 57.5493 14.7015 57.6589C13.9744 57.7186 13.2573 57.6987 12.5501 57.5394C11.7134 57.3501 11.076 56.872 10.6377 56.1449C10.4485 55.8262 10.2891 55.4975 10.1397 55.1588C8.22728 50.9157 6.32485 46.6726 4.41245 42.4294C4.33277 42.2402 4.23317 42.0609 4.1236 41.8318C3.98416 42.0709 4.03396 42.2701 4.03396 42.4494C4.03396 47.1905 4.03396 51.9416 4.03396 56.6828C4.03396 56.7923 4.03396 56.8919 4.03396 57.0015C4.024 57.4597 4.024 57.4597 3.56582 57.4597C2.5399 57.4597 1.52394 57.4597 0.49802 57.4597C0 57.4597 0 57.4597 0 56.9716C0 55.876 0 54.7803 0 53.6946C0 49.7603 0 45.8259 0 41.8916C0 41.5031 0.0199208 41.1147 0.0896435 40.7362C0.219129 40.0589 0.567742 39.5011 1.19525 39.2122C2.50006 38.5947 3.87459 38.3357 5.30889 38.6345C6.58382 38.8935 7.43045 39.6804 7.94839 40.8557C8.85479 42.9374 9.76119 45.0291 10.6576 47.1108C11.6437 49.3718 12.6198 51.6428 13.6059 53.9038C13.6756 54.0433 13.7055 54.2225 13.9047 54.3919Z" fill="white"/>
<path d="M91.6754 56.6725C92.9204 57.798 94.1854 58.9435 95.4504 60.079C95.3607 60.2284 95.2512 60.1786 95.1516 60.1786C93.8667 60.1786 92.5718 60.1786 91.2869 60.1885C90.9981 60.1885 90.7889 60.0989 90.5797 59.9096C89.7132 59.1128 88.8267 58.3259 87.9602 57.5291C87.761 57.3399 87.5618 57.2801 87.2928 57.3C84.8326 57.559 82.3624 57.5092 79.8922 57.4793C78.5874 57.4693 77.3424 57.1307 76.187 56.543C74.7328 55.796 73.9957 54.6007 73.9957 52.9672C73.9957 49.7202 73.9857 46.4731 73.9957 43.2359C73.9957 41.8415 74.6132 40.7658 75.7985 40.0187C76.7746 39.4012 77.8703 39.1422 78.9858 38.9729C79.5237 38.8932 80.0715 38.8733 80.6194 38.8733C82.9501 38.8733 85.2808 38.8733 87.6016 38.8733C88.8168 38.8733 89.9821 39.0825 91.1276 39.4908C91.5559 39.6502 91.9642 39.8494 92.3427 40.1183C93.4085 40.8454 93.9762 41.8714 93.9862 43.1563C94.0061 46.493 94.0061 49.8198 93.9862 53.1565C93.9762 54.6804 93.3288 55.8358 91.8945 56.4733C91.8348 56.5032 91.775 56.543 91.7152 56.5729C91.6953 56.5829 91.6953 56.6127 91.6754 56.6725ZM81.6752 51.8716C81.6851 51.8417 81.6951 51.8118 81.705 51.772C81.8246 51.772 81.9441 51.772 82.0636 51.772C83.3186 51.772 84.5637 51.782 85.8187 51.762C86.1275 51.762 86.3466 51.8517 86.5657 52.0608C87.3227 52.768 88.1096 53.4653 88.8765 54.1525C89.1753 54.4215 89.2251 54.4215 89.5339 54.1625C90.012 53.7641 90.2112 53.2461 90.2112 52.6286C90.2013 49.6704 90.2112 46.7022 90.2112 43.7439C90.2112 42.7678 89.7829 42.1702 88.8666 41.8216C88.3287 41.6124 87.7709 41.5825 87.2032 41.5825C85.2808 41.5825 83.3585 41.5825 81.4361 41.5825C81.1672 41.5825 80.9082 41.5925 80.6393 41.6124C80.1612 41.6522 79.703 41.7817 79.2847 42.0208C78.6472 42.3793 78.3185 42.9072 78.3185 43.6543C78.3285 46.6026 78.3185 49.5409 78.3185 52.4891C78.3185 53.535 78.8564 54.2621 79.8424 54.6007C80.0915 54.6804 80.3504 54.7402 80.6194 54.7701C81.8843 54.8796 83.1593 54.8 84.4242 54.8199C84.5338 54.8199 84.6732 54.8697 84.7928 54.7004C83.7668 53.7641 82.721 52.8178 81.6752 51.8716Z" fill="white"/>
<path d="M94.8428 34.65C94.1854 34.0922 93.5181 33.5543 92.8707 32.9766C91.4961 31.7615 90.3208 30.3969 89.5937 28.6837C89.4244 28.2853 89.2052 27.9068 88.9064 27.5482C88.8068 28.116 88.6973 28.6837 88.6076 29.2515C88.5279 29.7395 88.4881 30.2375 88.3785 30.7156C88.0299 32.1898 86.6255 32.6978 85.3904 31.8113C84.9522 31.5025 84.6235 31.0941 84.3147 30.6559C83.3784 29.3013 82.9103 27.7773 82.6912 26.1737C82.4023 24.0322 82.5318 21.9206 83.1792 19.8488C83.2888 19.5002 83.3485 19.1317 83.4282 18.7632C83.4979 18.4544 83.5577 18.1357 83.727 17.8667C83.9163 17.5679 83.8266 17.3189 83.6175 17.1097C82.4322 15.9344 81.8047 14.4404 81.217 12.9264C80.7688 11.761 80.3206 10.5857 80.0218 9.37051C79.8724 8.76293 79.5238 8.24499 79.1552 7.74697C78.6373 7.03978 78.0994 6.33259 77.5615 5.63537C77.1034 5.0477 76.6751 4.45008 76.3962 3.75285C76.0575 2.90622 76.0376 2.06955 76.4958 1.25279C76.9042 0.525684 77.5317 0.117308 78.3584 0.0276646C79.2249 -0.0719393 80.0516 0.107348 80.8485 0.40616C82.2629 0.93406 83.6075 1.57153 84.743 2.58749C85.0518 2.86638 85.4004 3.00582 85.8386 3.02574C86.8745 3.05562 87.9104 3.14527 88.9264 3.4142C90.1116 3.72297 91.2372 4.14131 92.283 4.78873C94.9524 6.4322 97.4624 8.27487 99.5939 10.5857C101.148 12.269 102.472 14.1017 103.648 16.0639C103.986 16.6217 104.235 17.2293 104.475 17.8368C105.261 19.8787 106.198 21.8509 107.164 23.8131C107.522 24.5402 107.871 25.2773 108.23 25.9944C108.389 26.3131 108.568 26.612 108.738 26.9207C108.897 27.1897 109.116 27.3689 109.415 27.4785C112.025 28.4247 114.395 29.7893 116.537 31.5523C116.975 31.9109 117.403 32.2794 117.861 32.6081C118.678 33.2057 119.236 34.0225 119.843 34.7894C120.053 35.0484 119.993 35.1679 119.664 35.2675C118.788 35.5464 117.901 35.7855 116.985 35.8552C116.148 35.915 115.351 36.1042 114.554 36.3233C114.236 36.413 113.907 36.4827 113.578 36.5425C113.379 36.5823 113.339 36.672 113.429 36.8413C113.538 37.0504 113.688 37.2198 113.847 37.3791C114.226 37.7576 114.664 38.0465 115.112 38.3254C115.979 38.8632 116.875 39.3513 117.672 40.0186C118.489 40.6959 119.246 41.433 119.913 42.2597C120.132 42.5287 120.371 42.7976 120.64 43.0267C121.059 43.3853 121.258 43.8534 121.447 44.4012C121.228 44.3614 121.108 44.2319 120.989 44.1223C119.664 42.947 118.23 41.931 116.586 41.2438C115.192 40.6561 113.937 39.8394 112.772 38.8931C111.845 38.1461 111.198 37.1899 110.74 36.1042C110.67 35.9448 110.73 35.8253 110.829 35.7257C110.949 35.5863 111.118 35.5265 111.277 35.4667C113.24 34.6898 115.272 34.3313 117.383 34.4109C117.533 34.4209 117.692 34.4508 117.851 34.3611C117.881 34.152 117.732 34.0325 117.622 33.9129C117.413 33.6938 117.174 33.5145 116.915 33.3551C115.979 32.7874 115.072 32.1798 114.206 31.5125C112.911 30.5164 111.407 29.9686 109.883 29.4507C109.345 29.2714 108.807 29.1021 108.279 28.9128C107.821 28.7435 107.463 28.4447 107.194 28.0263C106.646 27.1797 106.178 26.2932 105.779 25.3669C105.182 24.0123 104.554 22.6676 103.907 21.3429C103.449 20.4066 103.05 19.4504 102.682 18.4743C102.164 17.0998 101.367 15.8647 100.54 14.6595C98.0003 10.9741 94.7831 8.05574 90.7989 5.98398C89.7929 5.46604 88.767 4.9979 87.6315 4.82857C87.0438 4.73893 86.4363 4.72897 85.8386 4.68913C85.4203 4.65925 85.0418 4.5696 84.6533 4.58953C84.3545 4.59949 84.1155 4.41024 83.9063 4.22099C82.7808 3.18511 81.4162 2.57753 80.0317 1.98986C79.6433 1.82054 79.2349 1.69105 78.8166 1.62133C77.8803 1.47192 77.3524 2.09943 77.6512 3.00582C77.8604 3.65325 78.2389 4.20107 78.6572 4.73893C79.0158 5.19711 79.3644 5.66525 79.723 6.12343C80.709 7.35851 81.3565 8.75297 81.8146 10.247C82.0736 11.1036 82.3625 11.9602 82.6513 12.8069C82.9302 13.6136 83.3187 14.3607 83.7768 15.0778C84.0159 15.4563 84.2948 15.785 84.6235 16.0838C85.2311 16.6416 85.4303 17.299 85.1514 18.0958C84.982 18.5938 84.8326 19.1018 84.6434 19.5998C83.8864 21.5023 83.8067 23.4744 83.986 25.4864C84.1055 26.8012 84.4641 28.0463 85.0318 29.2315C85.251 29.6997 85.5099 30.1379 85.988 30.3969C86.3964 30.616 86.5159 30.5662 86.5558 30.0981C86.6454 29.2216 86.745 28.3451 86.8944 27.4785C87.0737 26.3829 87.4622 25.3769 88.2192 24.5302C88.4383 24.2812 88.6375 24.0123 88.8367 23.7633C89.0359 23.8728 89.0857 24.0422 89.1355 24.2115C89.4941 25.4167 90.032 26.5422 90.5997 27.6678C91.5858 29.62 92.7113 31.4925 93.9862 33.2755C94.2651 33.6639 94.6137 33.9826 94.8428 34.4109C94.8528 34.4906 94.8428 34.5703 94.8428 34.65Z" fill="white"/>
<path d="M50.4295 51.9213C50.4295 54.0727 50.4295 56.2242 50.4295 58.3756C50.4295 58.784 50.4295 59.1924 50.3299 59.5908C50.1307 60.4573 49.6426 61.1247 48.9354 61.6426C47.9693 62.3498 46.8637 62.6885 45.7083 62.8976C44.9214 63.0371 44.1345 63.0869 43.3377 63.0869C39.5229 63.0769 35.718 63.0869 31.9032 63.0869C31.2657 63.0869 31.3254 63.1168 31.3254 62.5191C31.3254 61.9016 31.3354 61.284 31.3254 60.6665C31.3254 60.4374 31.4051 60.3378 31.6342 60.3577C31.7537 60.3677 31.8832 60.3577 32.0028 60.3577C35.9072 60.3577 39.8017 60.3577 43.7062 60.3577C44.3138 60.3577 44.9015 60.2581 45.4592 60.0191C46.0668 59.7501 46.3955 59.3019 46.3656 58.6147C46.3457 58.276 46.3457 57.9473 46.3557 57.6087C46.3656 57.3796 46.266 57.2999 46.037 57.3098C45.5987 57.3198 45.1505 57.3098 44.7122 57.3098C42.4512 57.3098 40.1902 57.2999 37.9391 57.3098C36.6045 57.3098 35.2996 57.1405 34.0546 56.6525C33.4271 56.4034 32.8394 56.0847 32.3315 55.6365C31.6043 54.999 31.2258 54.2122 31.2458 53.2161C31.2956 50.4272 31.3254 47.6383 31.2756 44.8594C31.2756 44.5904 31.3354 44.4908 31.6243 44.4908C32.7398 44.5008 33.8454 44.5008 34.961 44.4908C35.22 44.4908 35.2996 44.5805 35.2996 44.8295C35.2897 45.7159 35.2996 46.5925 35.2996 47.4789C35.2996 49.3614 35.3196 51.2539 35.2897 53.1364C35.2698 54.1225 35.8275 54.5209 36.475 54.7201C36.8833 54.8496 37.3017 54.8695 37.73 54.8695C40.4691 54.8695 43.1982 54.8695 45.9373 54.8695C46.3856 54.8695 46.3856 54.8596 46.3856 54.3914C46.3856 51.3236 46.3856 48.2558 46.3856 45.188C46.3856 45.0685 46.3955 44.939 46.3856 44.8195C46.3557 44.5406 46.4852 44.4609 46.7541 44.4609C47.8298 44.4709 48.9055 44.4609 49.9813 44.4709C50.4394 44.4709 50.4394 44.4809 50.4494 44.939C50.4394 47.2598 50.4394 49.5905 50.4295 51.9213Z" fill="white"/>
<path d="M64.9816 38.8634C66.9737 38.8634 68.9658 38.8634 70.9678 38.8634C71.0873 38.8634 71.2168 38.8634 71.3363 38.8634C71.4858 38.8634 71.5555 38.9232 71.5555 39.0826C71.5555 39.8196 71.5555 40.5667 71.5555 41.3037C71.5555 41.4531 71.4858 41.5328 71.3363 41.5229C71.1969 41.5229 71.0575 41.5229 70.9081 41.5229C67.412 41.5229 63.9159 41.5229 60.4297 41.5229C59.8421 41.5229 59.2644 41.5727 58.6966 41.7121C57.9595 41.8914 57.6109 42.2898 57.591 43.0468C57.5711 43.6843 57.5711 44.3217 57.591 44.9492C57.6309 46.005 58.2683 46.6525 59.4038 46.7819C59.7524 46.8218 60.111 46.8218 60.4596 46.8218C61.9736 46.8218 63.4975 46.8118 65.0115 46.8218C66.3263 46.8317 67.6112 47.021 68.8363 47.5389C69.404 47.778 69.9419 48.0768 70.42 48.4852C71.0873 49.0629 71.4459 49.7601 71.426 50.6565C71.4061 51.4832 71.416 52.31 71.426 53.1466C71.4459 54.3319 70.9479 55.2582 70.0017 55.9455C69.0255 56.6527 67.9299 57.0511 66.7446 57.2603C66.137 57.3698 65.5195 57.3898 64.9019 57.3898C61.3062 57.3898 57.7006 57.3898 54.1049 57.3898C54.0551 57.3898 53.9953 57.3898 53.9455 57.3898C53.5471 57.3798 53.5471 57.3798 53.5471 56.9714C53.5471 56.314 53.557 55.6666 53.5471 55.0092C53.5471 54.7801 53.6268 54.6905 53.8559 54.7104C53.9754 54.7204 54.1049 54.7104 54.2244 54.7104C57.6109 54.7104 60.9975 54.7104 64.384 54.7104C64.9318 54.7104 65.4796 54.6706 66.0075 54.5112C66.386 54.4016 66.7147 54.2024 66.9936 53.9136C67.2327 53.6646 67.3622 53.3757 67.3622 53.0072C67.3522 52.3697 67.3622 51.7422 67.3622 51.1047C67.3622 50.298 67.0036 49.79 66.2267 49.531C65.5992 49.3218 64.9517 49.272 64.2943 49.272C62.9696 49.272 61.6449 49.282 60.3202 49.272C58.9556 49.2621 57.6109 49.0828 56.336 48.5748C55.6288 48.2959 54.9714 47.9274 54.4236 47.3696C53.8658 46.8019 53.567 46.1345 53.5869 45.3277C53.5969 44.5707 53.5869 43.8137 53.5969 43.0568C53.6069 41.5627 54.2642 40.4671 55.589 39.7599C56.7543 39.1423 57.9894 38.8535 59.2942 38.8435C61.1767 38.8634 63.0792 38.8634 64.9816 38.8634Z" fill="white"/>
<path d="M100.55 46.0846C100.55 48.1663 100.55 50.2481 100.55 52.3298C100.55 52.539 100.55 52.7581 100.56 52.9673C100.6 53.6645 100.939 54.1625 101.596 54.4314C102.214 54.6804 102.861 54.7502 103.518 54.7502C105.55 54.7601 107.572 54.7502 109.604 54.7601C111.048 54.7601 112.503 54.7601 113.947 54.7601C114.345 54.7601 114.345 54.7701 114.355 55.1685C114.355 55.8259 114.345 56.4733 114.355 57.1307C114.355 57.3598 114.286 57.4594 114.056 57.4395C114.037 57.4395 114.017 57.4395 114.007 57.4395C110.301 57.4295 106.596 57.4395 102.891 57.3996C101.656 57.3897 100.441 57.1506 99.2852 56.6725C98.7473 56.4534 98.2394 56.1645 97.8011 55.7761C97.0342 55.0988 96.6357 54.2422 96.5561 53.2262C96.5361 52.9772 96.5361 52.7282 96.5361 52.4892C96.5361 48.1464 96.5361 43.8137 96.5361 39.4709C96.5361 38.8036 96.4564 38.8833 97.1238 38.8733C98.08 38.8733 99.0262 38.8733 99.9824 38.8733C100.63 38.8733 100.56 38.8235 100.56 39.4311C100.55 41.6423 100.55 43.8635 100.55 46.0846Z" fill="white"/>
<path d="M122.184 54.6702C122.174 56.3635 120.869 57.6384 119.186 57.6185C117.523 57.5986 116.248 56.3037 116.248 54.6503C116.258 52.977 117.592 51.6622 119.256 51.6821C120.909 51.712 122.194 53.0168 122.184 54.6702ZM119.236 57.001C120.531 56.991 121.527 55.975 121.517 54.6603C121.517 53.3555 120.501 52.3196 119.216 52.3196C117.911 52.3196 116.885 53.3754 116.905 54.7001C116.935 56.0248 117.931 57.0109 119.236 57.001Z" fill="white"/>
<path d="M86.9045 10.5457C86.5459 9.50978 85.9184 8.64322 85.1913 7.82647C86.2869 7.36829 86.8646 7.68702 87.3826 8.49382C87.8706 9.25081 87.6615 10.0178 86.9045 10.5457Z" fill="white"/>
<path d="M94.8428 34.6499C94.8428 34.5702 94.8528 34.4905 94.8528 34.4009C94.9624 34.4208 95.0321 34.5005 95.1118 34.5802C95.5201 35.0383 95.9783 35.4467 96.4963 35.8651C95.9783 35.7953 95.5002 35.4368 94.8428 34.6499Z" fill="white"/>
<path d="M119.734 54.8993C120.043 55.3774 120.322 55.8256 120.61 56.2738C120.033 56.3834 120.033 56.3834 119.804 56.0049C119.614 55.706 119.435 55.4072 119.256 55.0985C119.176 54.969 119.086 54.8793 118.927 54.8793C118.718 54.8793 118.578 54.9192 118.588 55.1682C118.598 55.4471 118.588 55.7359 118.588 56.0148C118.588 56.2041 118.578 56.3535 118.32 56.3535C118.07 56.3535 118.031 56.2439 118.031 56.0248C118.041 55.3176 118.031 54.6104 118.031 53.9132C118.031 53.6841 118.031 53.455 118.031 53.2259C118.031 53.0566 118.09 52.957 118.27 52.9669C118.758 52.9869 119.256 52.9171 119.744 53.0068C120.312 53.1064 120.541 53.3255 120.59 53.7937C120.65 54.3514 120.481 54.6204 119.923 54.8395C119.883 54.8495 119.833 54.8694 119.734 54.8993ZM119.166 54.4212C119.316 54.4212 119.555 54.4411 119.764 54.3216C120.033 54.1721 120.092 53.8136 119.883 53.6144C119.744 53.4749 118.897 53.3554 118.718 53.4849C118.469 53.6542 118.638 53.9331 118.598 54.1622C118.569 54.3315 118.648 54.4311 118.837 54.4212C118.917 54.4212 119.007 54.4212 119.166 54.4212Z" fill="white"/>
</svg>
