<svg width="123" height="75" viewBox="0 0 123 75" fill="none" xmlns="http://www.w3.org/2000/svg">
<path d="M60.4291 74.8184C60.015 74.8184 59.6283 74.708 59.2691 74.5147L55.596 72.333C55.0435 72.029 55.3198 71.9186 55.4856 71.8634C56.2312 71.6149 56.3693 71.5594 57.1426 71.1178C57.2255 71.0624 57.3362 71.0901 57.4188 71.1453L60.236 72.83C60.3464 72.8852 60.4845 72.8852 60.5672 72.83L71.587 66.4501C71.6975 66.3949 71.7529 66.2843 71.7529 66.1464V53.4144C71.7529 53.276 71.6975 53.1659 71.587 53.1104L60.5672 46.7583C60.4568 46.7028 60.3187 46.7028 60.236 46.7583L49.2162 53.1104C49.1058 53.1656 49.0503 53.3037 49.0503 53.4141V66.1462C49.0503 66.2568 49.1058 66.3947 49.2162 66.4501L52.2266 68.19C53.8561 69.0185 54.8779 68.0519 54.8779 67.0853V54.5189C54.8779 54.3533 55.0161 54.1874 55.2094 54.1874H56.6178C56.7837 54.1874 56.9493 54.3255 56.9493 54.5189V67.0853C56.9493 69.267 55.7616 70.5376 53.6903 70.5376C53.0551 70.5376 52.5581 70.5376 51.1494 69.847L48.2495 68.19C47.5315 67.7759 47.0896 67.0024 47.0896 66.1739V53.4419C47.0896 52.6134 47.5315 51.8398 48.2495 51.4257L59.2691 45.0458C59.9598 44.6592 60.8989 44.6592 61.5893 45.0458L72.6089 51.4257C73.3269 51.8398 73.769 52.6134 73.769 53.4419V66.1739C73.769 67.0024 73.3269 67.7759 72.6089 68.19L61.5893 74.5699C61.2301 74.7357 60.816 74.8184 60.4293 74.8184H60.4291ZM63.8262 66.0635C58.9931 66.0635 57.9988 63.854 57.9988 61.976C57.9988 61.8102 58.1369 61.6446 58.3303 61.6446H59.7664C59.932 61.6446 60.0702 61.755 60.0702 61.9208C60.2912 63.3845 60.9264 64.1025 63.8539 64.1025C66.1738 64.1025 67.1684 63.5778 67.1684 62.3349C67.1684 61.6168 66.8919 61.0923 63.274 60.7331C60.2635 60.4292 58.3855 59.7665 58.3855 57.3637C58.3855 55.1266 60.2637 53.8008 63.4121 53.8008C66.9471 53.8008 68.6872 55.0162 68.9083 57.6672C68.9083 57.7504 68.8805 57.8331 68.8253 57.916C68.7699 57.9712 68.6872 58.0264 68.6043 58.0264H67.1681C67.03 58.0264 66.8919 57.916 66.8644 57.7779C66.533 56.259 65.6767 55.7617 63.4121 55.7617C60.8712 55.7617 60.5672 56.6457 60.5672 57.3083C60.5672 58.1093 60.9264 58.3578 64.351 58.7997C67.7481 59.2418 69.3501 59.8769 69.3501 62.252C69.3224 64.6825 67.334 66.0635 63.8262 66.0635Z" fill="#50C1EB"/>
<path d="M26.2376 25.0227C26.2376 24.5257 25.9613 24.0559 25.5195 23.8074L13.8093 17.0686C13.6157 16.9579 13.3949 16.9027 13.1741 16.875H13.0635C12.8427 16.875 12.6216 16.9579 12.4283 17.0686L0.718088 23.8074C0.276004 24.0559 0 24.5254 0 25.0227L0.0277199 43.1403C0.0277199 43.3888 0.165841 43.6373 0.386644 43.748C0.607687 43.8861 0.88369 43.8861 1.07725 43.748L8.03709 39.7709C8.47894 39.5224 8.75518 39.0528 8.75518 38.5558V30.0768C8.75518 29.5798 9.03118 29.1102 9.47327 28.8617L12.4283 27.1493C12.6493 27.0112 12.8979 26.9557 13.1464 26.9557C13.3949 26.9557 13.6434 27.0112 13.837 27.1493L16.792 28.8617C17.2341 29.1102 17.5101 29.5795 17.5101 30.0768V38.5558C17.5101 39.0528 17.7864 39.5224 18.2282 39.7709L25.188 43.748C25.4091 43.8861 25.6851 43.8861 25.9061 43.748C26.1272 43.6373 26.2653 43.3888 26.2653 43.1403L26.2376 25.0227Z" fill="white"/>
<path d="M82.524 0.0829804C82.3032 -0.0276601 82.027 -0.0276601 81.8334 0.0829804C81.6126 0.221102 81.4745 0.441905 81.4745 0.690428V18.6426C81.4745 18.8082 81.3918 18.9738 81.226 19.0845C81.0604 19.1672 80.8945 19.1672 80.7289 19.0845L77.8014 17.3998C77.5867 17.2776 77.344 17.2133 77.097 17.2133C76.85 17.2133 76.6073 17.2776 76.3927 17.3998L64.6825 24.1663C64.2406 24.4148 63.9644 24.8844 63.9644 25.3814V38.8867C63.9644 39.3838 64.2406 39.8536 64.6825 40.1021L76.3927 46.8686C76.6073 46.9908 76.85 47.0551 77.097 47.0551C77.344 47.0551 77.5867 46.9908 77.8014 46.8686L89.5116 40.1021C89.9534 39.8536 90.2297 39.384 90.2297 38.8867V5.22C90.2297 4.69523 89.9534 4.22591 89.5116 3.97714L82.5243 0.0829804H82.524ZM81.447 34.4403C81.447 34.5784 81.3918 34.6888 81.2812 34.744L77.2766 37.0639C77.2207 37.0912 77.1593 37.1054 77.097 37.1054C77.0348 37.1054 76.9734 37.0912 76.9174 37.0639L72.9129 34.744C72.8022 34.6888 72.747 34.5507 72.747 34.4403V29.8004C72.747 29.6622 72.8022 29.5518 72.9129 29.4966L76.9174 27.1765C76.9734 27.1492 77.0348 27.1351 77.097 27.1351C77.1593 27.1351 77.2207 27.1492 77.2766 27.1765L81.2812 29.4966C81.3918 29.5516 81.447 29.69 81.447 29.8004V34.4403Z" fill="white"/>
<path d="M121.494 29.69C121.936 29.4415 122.184 28.9719 122.184 28.4747V25.1882C122.184 24.6911 121.908 24.2216 121.494 23.973L109.866 17.2343C109.652 17.1121 109.409 17.0479 109.162 17.0479C108.915 17.0479 108.672 17.1121 108.458 17.2343L96.7476 24.0005C96.3055 24.2491 96.0295 24.7186 96.0295 25.2159V38.7212C96.0295 39.2183 96.3055 39.6878 96.7476 39.9363L108.375 46.5647C108.817 46.8133 109.341 46.8133 109.756 46.5647L116.798 42.6433C117.019 42.5327 117.158 42.2842 117.158 42.0357C117.158 41.7871 117.019 41.5386 116.798 41.428L105.033 34.6614C104.812 34.5236 104.674 34.3025 104.674 34.054V29.8284C104.674 29.5799 104.812 29.3313 105.033 29.2207L108.706 27.1216C108.814 27.054 108.938 27.0181 109.065 27.0181C109.192 27.0181 109.317 27.054 109.424 27.1216L113.098 29.2207C113.319 29.3588 113.457 29.5796 113.457 29.8284V33.1426C113.457 33.3911 113.595 33.6396 113.816 33.75C114.037 33.8882 114.313 33.8882 114.534 33.75L121.494 29.69Z" fill="white"/>
<path d="M108.983 29.0548C109.024 29.0278 109.072 29.0134 109.121 29.0134C109.17 29.0134 109.218 29.0278 109.259 29.0548L111.496 30.3528C111.579 30.4078 111.634 30.4907 111.634 30.6014V33.1975C111.634 33.3079 111.579 33.3908 111.496 33.446L109.259 34.7441C109.218 34.771 109.17 34.7854 109.121 34.7854C109.072 34.7854 109.024 34.771 108.983 34.7441L106.745 33.446C106.663 33.3908 106.607 33.3079 106.607 33.1975V30.6014C106.607 30.4907 106.663 30.4078 106.745 30.3528L108.983 29.0548Z" fill="#50C1EB"/>
<mask id="mask0" mask-type="alpha" maskUnits="userSpaceOnUse" x="32" y="17" width="27" height="30">
<path d="M45.819 17.2894C45.6044 17.1673 45.3617 17.103 45.1148 17.103C44.8679 17.103 44.6252 17.1673 44.4106 17.2894L32.7833 24.0003C32.3412 24.2488 32.0927 24.7184 32.0927 25.2154V38.6658C32.0927 39.1628 32.3689 39.6324 32.7833 39.8809L44.4106 46.5922C44.6252 46.7144 44.8679 46.7786 45.1148 46.7786C45.3617 46.7786 45.6044 46.7144 45.819 46.5922L57.4466 39.8809C57.8884 39.6324 58.1372 39.1628 58.1372 38.6658V25.2156C58.1372 24.7186 57.8607 24.249 57.4466 24.0005L45.819 17.2894Z" fill="#00AEEF"/>
</mask>
<g mask="url(#mask0)">
<path d="M45.819 17.2894C45.6044 17.1673 45.3617 17.103 45.1148 17.103C44.8679 17.103 44.6252 17.1673 44.4106 17.2894L32.7833 24.0003C32.3412 24.2488 32.0927 24.7184 32.0927 25.2154V38.6658C32.0927 39.1628 32.3689 39.6324 32.7833 39.8809L44.4106 46.5922C44.6252 46.7144 44.8679 46.7786 45.1148 46.7786C45.3617 46.7786 45.6044 46.7144 45.819 46.5922L57.4466 39.8809C57.8884 39.6324 58.1372 39.1628 58.1372 38.6658V25.2156C58.1372 24.7186 57.8607 24.249 57.4466 24.0005L45.819 17.2894Z" fill="white"/>
<path d="M44.3825 17.2891L32.7277 24C32.2854 24.2487 31.9819 24.7185 31.9819 25.2156V38.6659C31.9819 38.9974 32.12 39.3011 32.3408 39.5496L45.432 17.1233C45.1006 17.0681 44.7139 17.0956 44.3825 17.2889V17.2891Z" fill="#50C1EB"/>
<path d="M45.5153 46.7301C45.6257 46.7023 45.7364 46.6471 45.8468 46.5919L57.5018 39.8806C57.9439 39.6321 58.2199 39.1625 58.2199 38.6655V25.2151C58.2199 24.8562 58.054 24.4971 57.8055 24.2485L45.5156 46.7301H45.5153Z" fill="#50C1EB"/>
<path d="M57.4746 24.0001L45.7921 17.289C45.6774 17.231 45.557 17.1848 45.433 17.1509L32.3418 39.5772C32.4502 39.7096 32.5812 39.8218 32.7287 39.9087L44.4112 46.62C44.7426 46.8133 45.1293 46.8685 45.4882 46.7578L57.7786 24.2766C57.6957 24.1662 57.585 24.083 57.4746 24.0003V24.0001Z" fill="#50C1EB"/>
<path fill-rule="evenodd" clip-rule="evenodd" d="M57.5017 39.8808C57.8331 39.6875 58.0816 39.3561 58.1923 38.9971L45.3768 17.1233C45.0454 17.0681 44.6862 17.0956 44.3828 17.2889L32.7829 23.9727L45.2939 46.7855C45.4759 46.7557 45.6526 46.6999 45.8187 46.6199L57.5014 39.8811L57.5017 39.8808Z" fill="#50C1EB"/>
<path fill-rule="evenodd" clip-rule="evenodd" d="M57.5018 39.8809L45.8468 46.5922C45.6822 46.6761 45.5049 46.7321 45.322 46.7578L45.5431 47.1722L58.4684 39.6878V39.522L58.137 38.9695C58.0818 39.3561 57.8332 39.6876 57.5018 39.8809Z" fill="white"/>
<path fill-rule="evenodd" clip-rule="evenodd" d="M57.5018 39.8809L45.8468 46.5922C45.6822 46.6761 45.5049 46.7321 45.322 46.7578L45.5431 47.1722L58.4684 39.6878V39.522L58.137 38.9695C58.0818 39.3561 57.8332 39.6876 57.5018 39.8809Z" fill="white"/>
</g>
</svg>
