<svg width="76" height="69" viewBox="0 0 76 69" fill="none" xmlns="http://www.w3.org/2000/svg">
<path d="M62.4871 22.3643C61.6783 22.0811 60.8627 21.8188 60.0409 21.5776C60.1789 21.002 60.306 20.4333 60.4188 19.8747C62.2707 10.7014 61.0601 3.3111 56.9249 0.877871C52.9601 -1.45478 46.4761 0.977539 39.9276 6.79311C39.2822 7.36728 38.6512 7.958 38.035 8.56471C37.6226 8.16127 37.2028 7.76566 36.776 7.37808C29.9128 1.15991 23.0336 -1.46084 18.9029 0.979357C14.9417 3.31928 13.7688 10.2666 15.436 18.9604C15.6019 19.8215 15.7892 20.6781 15.9977 21.5294C15.024 21.8117 14.0843 22.1122 13.1851 22.4321C5.13861 25.2949 0 29.7812 0 34.4347C0 39.2409 5.51653 44.0616 13.8973 46.9846C14.5768 47.2206 15.2619 47.4393 15.952 47.6405C15.7279 48.5574 15.5289 49.4805 15.3553 50.4088C13.7658 58.9517 15.007 65.7349 18.9575 68.06C23.0378 70.4611 29.8861 67.9933 36.5542 62.0451C37.0949 61.5615 37.6237 61.0642 38.1401 60.5537C38.8074 61.2106 39.4924 61.8485 40.1945 62.4665C46.6539 68.1381 53.0332 70.4284 56.9798 68.0969C61.0562 65.6889 62.3812 58.4019 60.6611 49.5363C60.5256 48.8418 60.3736 48.1507 60.2054 47.4636C60.6863 47.3182 61.1583 47.1685 61.6185 47.0128C70.3312 44.0673 76 39.3051 76 34.4347C76 29.7642 70.6954 25.2477 62.4871 22.3643ZM60.5975 43.8683C60.1819 44.0085 59.7556 44.144 59.321 44.2757C58.3591 41.1685 57.0612 37.8646 55.4726 34.4507C56.9884 31.1184 58.2365 27.8566 59.1713 24.7696C59.9489 24.9993 60.7032 25.2413 61.4306 25.4967C68.4635 27.9675 72.7534 31.6201 72.7534 34.4347C72.7534 37.4326 68.1203 41.3245 60.5975 43.8683ZM57.4762 50.1798C58.2368 54.0998 58.3451 57.6442 57.8413 60.4152C57.3889 62.9051 56.4787 64.5649 55.3529 65.2299C52.958 66.6446 47.8361 64.8058 42.3121 59.9551C41.6591 59.3805 41.0218 58.7875 40.4011 58.1768C42.5428 55.7869 44.683 53.0086 46.7718 49.9229C50.4459 49.5902 53.917 49.0462 57.0647 48.3036C57.2197 48.9419 57.3574 49.5678 57.4762 50.1798ZM25.9101 64.9854C23.5701 65.8285 21.7063 65.8527 20.5797 65.1899C18.1824 63.7791 17.1858 58.3325 18.5452 51.0268C18.7068 50.1635 18.8918 49.3049 19.1 48.4521C22.2131 49.1549 25.6589 49.6602 29.3416 49.965C31.4447 52.9844 33.6466 55.7596 35.8658 58.1898C35.3942 58.6555 34.9114 59.1092 34.4179 59.5507C31.469 62.1808 28.5142 64.0469 25.9101 64.9854ZM14.9477 43.8498C11.2418 42.5572 8.18128 40.8773 6.08356 39.0442C4.19841 37.3972 3.24692 35.7616 3.24692 34.4347C3.24692 31.6107 7.37259 28.0087 14.2539 25.5606C15.089 25.2637 15.963 24.9835 16.8699 24.7206C17.8211 27.8772 19.0686 31.1778 20.574 34.5153C19.049 37.9022 17.7837 41.2554 16.8233 44.4493C16.1934 44.2652 15.568 44.0653 14.9477 43.8498ZM18.6224 18.324C17.1941 10.8755 18.1426 5.25689 20.5298 3.8467C23.0722 2.34471 28.6945 4.48621 34.6204 9.85554C35.0068 10.2065 35.387 10.5645 35.7607 10.9295C33.5525 13.3491 31.3708 16.1037 29.2864 19.1052C25.712 19.4433 22.2906 19.9862 19.1449 20.7136C18.9511 19.9217 18.7768 19.125 18.6224 18.3243V18.324ZM51.4054 26.5846C50.6624 25.2749 49.8918 23.9818 49.0942 22.706C51.5191 23.0189 53.8424 23.4343 56.0242 23.942C55.3693 26.0844 54.5529 28.3241 53.5919 30.6204C52.8895 29.2604 52.1605 27.9148 51.4054 26.5846ZM38.0365 13.2973C39.534 14.9528 41.0338 16.8011 42.5089 18.8065C39.5164 18.6623 36.5189 18.6617 33.5264 18.8047C35.003 16.8177 36.5156 14.9719 38.0365 13.2973ZM24.5818 26.6073C23.8362 27.9269 23.1208 29.264 22.4363 30.6176C21.4911 28.3295 20.6821 26.0796 20.0215 23.9069C22.1899 23.4119 24.5023 23.0071 26.9117 22.7C26.1052 23.9835 25.3284 25.2862 24.5818 26.607V26.6073ZM26.9809 46.4051C24.4916 46.1216 22.1445 45.7377 19.9767 45.2561C20.6477 43.0446 21.4745 40.7468 22.4402 38.4096C23.1274 39.7642 23.8457 41.1022 24.5946 42.4223C25.3647 43.7795 26.1621 45.1088 26.9809 46.4051ZM38.1262 55.8054C36.5872 54.1113 35.0523 52.237 33.5534 50.2213C35.0087 50.2794 36.4922 50.3091 38 50.3091C39.5491 50.3091 41.0804 50.2737 42.5876 50.2052C41.1077 52.2573 39.6135 54.1344 38.1262 55.8054ZM53.6225 38.2902C54.6384 40.6532 55.4945 42.9389 56.1744 45.1125C53.971 45.6256 51.5918 46.0389 49.085 46.3457C49.8883 45.0463 50.6662 43.7307 51.4182 42.3996C52.1827 41.0467 52.9177 39.6765 53.6225 38.2902ZM48.6059 40.7444C47.4546 42.7851 46.2387 44.7871 44.9599 46.7471C42.6436 46.9145 40.3221 46.9977 38 46.9965C35.6348 46.9965 33.3343 46.9213 31.119 46.7747C29.8069 44.8192 28.5678 42.8137 27.4042 40.7625H27.4045C26.2465 38.7222 25.1648 36.6378 24.1618 34.5138C25.1622 32.3892 26.2406 30.3038 27.3947 28.262L27.3944 28.2623C28.5481 26.2199 29.7773 24.223 31.0795 22.2758C33.3397 22.1013 35.6574 22.0105 37.9997 22.0105H38C40.353 22.0105 42.6737 22.1022 44.9332 22.278C46.2223 24.2222 47.4437 26.2122 48.5952 28.2444C49.7531 30.2817 50.8458 32.357 51.8715 34.4668C50.8563 36.5982 49.7671 38.6921 48.6059 40.7444ZM55.3034 3.74794C57.8482 5.24568 58.838 11.2854 57.239 19.2058C57.1369 19.7111 57.0223 20.2258 56.8976 20.7478C53.7442 20.005 50.3203 19.4527 46.7355 19.1095C44.6473 16.0749 42.4834 13.316 40.3112 10.9276C40.8805 10.3677 41.4633 9.8222 42.0592 9.29177C47.6701 4.30929 52.9141 2.34199 55.3034 3.74794ZM38 27.5094C41.748 27.5094 44.7866 30.6101 44.7866 34.4347C44.7866 38.2593 41.748 41.3599 38 41.3599C34.252 41.3599 31.2134 38.2593 31.2134 34.4347C31.2134 30.6101 34.252 27.5094 38 27.5094Z" fill="white"/>
</svg>
