<svg width="67" height="64" viewBox="0 0 67 64" fill="none" xmlns="http://www.w3.org/2000/svg">
  <path d="M33.3267 0.00223306C30.5239 0.00959035 27.733 0.349212 25.0177 1.01333C11.9544 4.1207 1.58548 15.435 0.256131 28.2689C-1.39143 40.408 5.03133 53.0578 16.0095 59.3246C26.795 65.7796 41.3928 65.5213 51.9481 58.7319C61.4357 52.8395 67.333 42.1079 66.9854 31.2721C66.8242 20.5545 60.5313 10.1352 50.9013 4.62925C45.6572 1.53189 39.4877 -0.021793 33.3267 0.000230884V0.00223306ZM33.1403 4.52714C46.9426 4.50512 60.4643 14.7142 61.8481 28.355C64.4879 43.4654 51.3703 58.826 35.3636 59.2745C20.142 60.7241 5.42072 48.3767 4.98528 33.7568C3.85271 21.922 12.0193 10.1693 23.6841 6.25702C26.6917 5.11131 29.9009 4.52749 33.1382 4.53715L33.1403 4.52714ZM47.3592 13.1425C39.8562 18.7085 32.6714 24.643 25.3338 30.3792C28.6917 30.4192 32.0727 30.4192 35.4411 30.3972C39.3768 24.6209 43.4235 18.9187 47.3592 13.1405V13.1425ZM31.5493 33.5706C27.6136 39.3589 23.5585 45.0711 19.6186 50.8594C27.1446 45.3014 34.2959 39.3269 41.6775 33.6227C38.3009 33.586 34.924 33.5693 31.5472 33.5726L31.5493 33.5706Z" fill="#fff" />
</svg>
