<svg width="100" height="104" viewBox="0 0 100 104" fill="none" xmlns="http://www.w3.org/2000/svg">
  <path d="M3.55689 25.9694C8.41455 29.0494 13.0546 31.9591 17.6511 34.9386C18.1995 35.2925 19.5184 35.393 18.5826 36.7648C17.7947 37.9269 17.1897 37.7784 16.1581 37.1099C11.6661 34.2221 7.11743 31.4304 2.59928 28.5819C0.422911 27.2101 0.470791 24.6762 2.69069 23.2913C7.21755 20.4602 11.7575 17.6511 16.2887 14.8288C17.0678 14.3438 17.6859 13.6929 18.5129 14.9948C19.3095 16.253 18.6479 16.5676 17.7817 17.1006C13.1155 19.9797 8.47549 22.8981 3.55689 25.9694Z" fill="#fff" />
  <path d="M97.3673 25.5019C92.5662 22.4655 87.9348 19.5384 83.3035 16.6157C82.5244 16.122 81.6364 15.8729 82.4765 14.5317C83.3296 13.173 83.9738 13.9507 84.7095 14.405C89.3016 17.2535 93.8894 20.1151 98.4685 22.9854C100.44 24.2218 100.519 26.7776 98.6078 27.9878C93.9852 30.9236 89.3016 33.7721 84.7269 36.7823C83.4689 37.608 83.0293 37.0662 82.3764 36.1575C81.5102 34.9517 82.7115 34.7901 83.2295 34.458C87.2341 31.8935 91.2821 29.3902 95.3084 26.8606C95.9744 26.4499 96.6099 26.0043 97.3673 25.5019Z" fill="#fff" />
  <path d="M60.7824 23.0815C60.8085 24.1301 60.839 25.183 60.8651 26.2315C59.1545 27.6426 57.4438 29.0494 55.7289 30.4605C55.5634 30.6134 55.4024 30.7663 55.237 30.9193L55.2718 30.9061C54.04 30.8712 53.2565 31.3955 53.0867 32.6799C52.9518 32.8066 52.8125 32.9333 52.6776 33.0644C51.9071 33.0076 51.35 33.4095 50.7363 33.8245C48.1855 35.5502 45.822 37.5861 42.9361 38.7788C42.2571 39.0584 41.4823 39.9584 40.825 39.1939C40.1721 38.4293 41.121 37.7128 41.5607 37.1623C44.1897 33.8988 47.5587 31.3955 50.5665 28.5164C51.0845 28.0227 51.7983 27.7693 52.5688 28.0314C53.1999 28.2455 53.8311 28.3591 54.3839 27.8305C54.6668 27.6863 54.9497 27.5465 55.2326 27.4023C56.1162 27.398 56.8344 27.1752 56.9476 26.1266C58.0706 24.9252 59.3634 23.9247 60.7824 23.0815Z" fill="#fff" />
  <path d="M54.3839 27.8348C53.8311 28.3634 53.1999 28.2499 52.5688 28.0358C51.7983 27.7736 51.0845 28.0227 50.5665 28.5207C47.5588 31.3998 44.1897 33.9031 41.5607 37.1667C41.121 37.7128 40.1721 38.4293 40.8251 39.1982C41.4823 39.9671 42.2571 39.0671 42.9361 38.7831C45.822 37.5904 48.1856 35.5546 50.7363 33.8289C51.35 33.4138 51.9071 33.0075 52.6776 33.0687C51.9376 33.9337 51.1977 34.8031 50.4577 35.6682L50.4664 35.6594C46.8014 37.8002 43.5281 40.4477 40.5247 43.4403C37.9131 43.436 35.2971 43.4272 32.6854 43.4229C37.0295 39.3817 41.343 35.3055 45.7393 31.3212C47.6415 29.5998 49.3738 27.6295 51.8114 26.5941L51.9899 26.5984L52.1683 26.5766V26.5635C52.5426 27.5246 53.4654 27.4285 54.2315 27.6338C54.2837 27.6994 54.3316 27.7693 54.3839 27.8348Z" fill="#fff" />
  <path d="M51.8158 26.5898C49.3783 27.6296 47.6415 29.6 45.7437 31.3169C41.3475 35.297 37.0339 39.3775 32.6898 43.4186C30.0825 43.3225 31.9673 41.3828 31.4667 40.4216C32.8857 39.3163 34.4353 38.342 35.6976 37.0794C37.8261 34.9562 40.7685 33.7373 42.3181 30.9936C43.1538 30.8932 43.8372 30.5917 44.0549 29.6699C44.1898 29.517 44.3291 29.3641 44.464 29.2111C45.0865 29.2068 45.574 29.0014 45.7611 28.3417C47.0583 28.3068 47.6981 27.267 48.5077 26.5025C49.2346 25.8122 49.9137 25.0651 51.0584 25.2442C51.3153 25.6942 51.5677 26.1442 51.8158 26.5898Z" fill="#fff" />
  <path d="M54.8061 43.4186C53.6483 43.4186 52.4905 43.4186 51.3326 43.4186C51.7157 41.5356 52.7734 40.0677 54.101 38.7352C54.8845 37.9532 55.9291 37.3328 56.1076 36.0746C56.8389 36.0265 57.6398 36.2886 58.2143 35.5765L58.21 35.6377C58.519 35.4891 58.8324 35.345 59.1415 35.1964L59.0936 35.2183C59.4331 35.0697 59.7683 34.9168 60.1078 34.7683C60.2166 34.6328 60.3298 34.5018 60.4386 34.3663C60.5735 34.2134 60.7085 34.0605 60.8434 33.9076L60.8652 33.8901C62.7325 34.279 63.0633 34.8993 62.0665 36.3585C61.5442 37.1231 60.9479 37.8221 60.9 38.8007C60.7868 38.9274 60.6693 39.0541 60.5561 39.1852C58.4363 40.3167 56.4384 41.6186 54.8061 43.4186Z" fill="#fff" />
  <path d="M58.2187 35.5767C57.6442 36.2888 56.8433 36.0267 56.112 36.0747C55.4721 35.498 54.9411 35.8038 54.4188 36.2757C53.1391 37.4203 51.7854 38.4907 50.5884 39.7183C49.4566 40.8761 47.8592 41.6537 47.4196 43.4144C45.6872 43.4188 43.9504 43.4188 42.218 43.4231C44.2116 41.2911 46.5925 39.6135 48.8342 37.7698C49.5437 37.1888 50.3751 36.7126 50.4708 35.6553L50.4621 35.664C51.5111 35.7995 52.1118 35.0786 52.7473 34.4408C53.3611 33.8248 54.0009 33.3223 54.9455 33.6063C55.7855 34.6767 56.6517 35.7165 58.2187 35.5767Z" fill="#fff" />
  <path d="M31.458 39.1109C31.4624 37.2366 31.4624 35.3624 31.4667 33.4838C32.2415 33.4051 32.6289 32.728 33.2122 32.3566C35.4234 30.9586 36.7422 28.4858 39.2059 27.4023C38.9926 29.0407 37.6781 29.9057 36.7031 31.0154C36.2634 31.5134 35.2144 31.9896 35.7019 32.6712C36.3157 33.5318 37.1906 32.8153 37.961 32.444C39.0927 31.9023 39.9894 30.8188 41.3997 30.9105C38.3441 33.9644 34.7966 36.4109 31.458 39.1109Z" fill="#fff" />
  <path d="M39.2015 27.4068C36.7422 28.4859 35.419 30.963 33.2078 32.3611C32.6245 32.7281 32.2372 33.4052 31.4624 33.4882C31.4624 32.4747 31.458 31.4655 31.458 30.4519C33.6866 29.281 35.3145 27.2888 37.4169 25.9782C39.1275 24.9122 40.0155 22.6011 42.4313 22.6316C42.8404 23.2083 43.2452 23.7807 43.6501 24.3573L43.4759 24.4272C42.6315 24.3268 41.835 24.353 41.3692 25.2442C40.49 25.7991 39.7674 26.5199 39.2015 27.4068Z" fill="#fff" />
  <path d="M83.1512 99.934C81.6408 99.187 79.9694 99.3311 78.1369 99.7724C76.7266 100.113 75.8909 98.9248 75.6297 97.4176C75.3293 95.6875 76.5916 93.5468 74.363 92.2973C75.0159 91.3274 75.4817 90.0823 76.3784 89.4532C77.4274 88.7192 77.8148 89.6235 77.7712 90.6895C77.7147 91.9521 79.4993 90.6677 79.5341 91.9565C79.5733 93.2759 77.8235 92.3016 77.793 93.3851C77.7538 94.7569 77.5841 96.1768 77.8713 97.4831C78.1238 98.6277 79.6081 97.7977 80.335 98.4311C81.1185 97.0113 82.0718 98.1865 82.9554 98.252C83.6779 98.3088 84.5006 98.3787 84.7095 97.4482C84.9054 96.57 84.0871 96.4521 83.5212 96.1856C83.4559 96.155 83.3776 96.1593 83.3123 96.1331C80.9139 95.2026 80.1478 94.154 80.7833 92.673C81.4319 91.1701 83.9783 90.5628 85.7281 91.5153C86.0806 91.7075 86.616 91.8735 86.4288 92.4371C86.2547 92.9613 85.8848 93.2846 85.2623 93.0007C85.0012 92.8827 84.7313 92.7604 84.4571 92.708C83.7911 92.5813 82.9684 92.5681 82.7856 93.2803C82.5767 94.0929 83.4255 94.2502 84.0348 94.4468C84.1698 94.4904 84.3004 94.5516 84.4396 94.5997C85.8978 95.0759 87.1993 95.7443 86.8641 97.6054C86.5116 99.5277 84.901 99.6763 83.1512 99.934Z" fill="#fff" />
  <path d="M16.9938 95.3468C16.9938 94.6959 16.9938 94.0405 16.9938 93.3896C16.9982 91.6464 16.9938 91.7207 18.9395 91.926C19.4662 91.9828 20.1191 91.1265 20.6022 91.227C22.487 91.6289 24.2759 91.6508 26.1911 91.2357C27.2097 91.0173 27.88 92.2012 27.9105 93.3371C27.954 95.0759 27.9235 96.8147 27.9453 98.5535C27.954 99.2045 27.8844 99.6589 27.0312 99.6327C26.2521 99.6108 25.8168 99.4404 25.8429 98.5404C25.8865 97.0944 25.8734 95.6395 25.8342 94.1934C25.8168 93.5862 25.9648 92.7386 25.0159 92.708C24.1802 92.6818 23.6666 93.324 23.6056 94.0798C23.4968 95.4473 23.549 96.8322 23.549 98.2084C23.549 98.9511 23.6317 99.6239 22.5 99.6458C21.377 99.6632 21.4162 99.0297 21.4249 98.2652C21.4423 96.9589 21.4423 95.657 21.4205 94.3507C21.4075 93.6473 21.5337 92.7255 20.5021 92.7124C19.5619 92.6993 19.1179 93.49 19.0614 94.3245C18.9699 95.622 19.0135 96.9327 19.0178 98.2346C19.0222 98.9861 19.0918 99.6458 17.9558 99.6414C16.737 99.637 17.0112 98.8375 16.9938 98.1691C16.9764 97.2298 16.9938 96.2905 16.9938 95.3468Z" fill="#fff" />
  <path d="M40.0895 75.9272C40.0895 74.9048 40.1199 74.0354 40.0808 73.1748C40.0459 72.4277 40.3289 72.1394 41.0862 72.1962C41.7305 72.2442 42.2093 72.3622 42.2093 73.1529C42.2005 76.4776 42.2136 79.8023 42.1962 83.127C42.1962 83.376 41.9481 83.8479 41.935 83.8435C40.1112 83.2362 38.2221 84.7304 36.4767 83.7867C34.9576 82.9654 34.7835 81.3664 34.7835 79.8154C34.7748 76.3728 36.629 74.9442 40.0895 75.9272ZM40.0851 79.7281C40.0851 79.3698 40.0721 79.0116 40.0895 78.6577C40.1417 77.5698 39.5193 76.9626 38.553 77.0543C37.0251 77.1985 36.9686 78.496 36.9773 79.6538C36.986 80.829 36.7335 82.31 38.405 82.546C39.2799 82.6683 40.0329 82.0829 40.0764 81.0169C40.0982 80.5843 40.0808 80.1562 40.0851 79.7281Z" fill="#fff" />
  <path d="M30.0085 97.0243C30.0085 95.5083 29.9954 93.9966 30.0128 92.4806C30.0172 92.0176 29.9606 91.1219 30.5961 91.4015C32.063 92.0394 33.3209 90.9909 34.6877 91.1831C35.9892 91.3666 36.6769 92.1748 37.0512 93.3806C38.2352 97.1859 36.5681 99.6761 32.816 99.5189C31.9846 99.4839 32.0412 99.8902 32.0195 100.388C31.9933 100.965 32.0238 101.542 31.989 102.118C31.9455 102.909 31.3317 102.948 30.7485 103.001C29.965 103.071 30.0128 102.498 30.0085 102C30.0041 100.34 30.0128 98.68 30.0085 97.0243ZM31.9759 95.4471C32.0586 96.2204 31.7888 96.9893 32.2676 97.6184C32.6898 98.1733 33.3253 98.514 33.9695 98.1689C35.4581 97.3694 35.3014 95.9058 35.1578 94.5515C35.0707 93.7039 34.8749 92.7428 33.7518 92.6641C32.8378 92.5986 32.2719 93.1753 32.0586 94.0141C31.9368 94.4903 31.9933 95.0146 31.9759 95.4471Z" fill="#fff" />
  <path d="M13.1938 75.6084C17.3812 75.8399 15.3223 79.9554 17.3377 81.5413C17.8078 79.8986 18.3562 78.3215 18.687 76.6962C18.9221 75.5385 19.662 75.5254 20.4281 75.7045C21.673 75.9929 20.6936 76.7618 20.5674 77.1987C19.9058 79.4836 19.1571 81.7423 18.3997 83.9966C17.8643 85.5912 16.9024 86.7883 15.17 87.1684C14.7217 87.2689 14.1732 87.6621 14.0252 86.7883C13.9338 86.2291 13.9773 85.8533 14.6564 85.6655C16.1711 85.2461 16.2495 84.5208 15.5792 83.0354C14.5563 80.768 14.0209 78.2778 13.1938 75.6084Z" fill="#fff" />
  <path d="M46.7883 95.4865C46.7709 98.1079 45.082 99.9297 42.7533 99.851C40.4812 99.7724 38.9882 98.0205 38.9969 95.4472C39.0099 92.8303 40.6988 90.9997 43.0275 91.0784C45.2779 91.1483 46.81 92.9395 46.7883 95.4865ZM41.1906 95.4865C41.3343 96.6618 41.2037 98.2171 42.8839 98.2214C44.5553 98.2214 44.564 96.6661 44.5597 95.4734C44.5553 94.2938 44.6076 92.7298 42.9013 92.7298C41.2081 92.7298 41.3343 94.272 41.1906 95.4865Z" fill="#fff" />
  <path d="M15.1395 95.3774C15.1744 97.99 13.5247 99.8773 11.2177 99.8642C8.94992 99.8511 7.40905 98.121 7.36552 95.5478C7.322 92.944 8.97604 91.0522 11.283 91.0522C13.529 91.061 15.1004 92.8216 15.1395 95.3774ZM9.54625 95.4779C9.71165 96.5745 9.49837 98.1473 11.1785 98.2128C12.8761 98.2783 12.9109 96.7361 12.9109 95.5347C12.9153 94.3551 13.011 92.7954 11.3178 92.7299C9.60719 92.6643 9.6986 94.1978 9.54625 95.4779Z" fill="#fff" />
  <path d="M48.647 95.3468C48.647 94.5517 48.6688 93.7522 48.6427 92.957C48.5905 91.4585 48.9387 90.6547 50.4926 91.8255C51.0976 92.2799 51.2935 91.5721 51.6766 91.4061C53.6614 90.5454 55.1805 91.3799 55.3285 93.5381C55.4417 95.1939 55.359 96.8672 55.3851 98.5317C55.3938 99.1783 55.3198 99.6152 54.4754 99.6326C53.6092 99.6501 53.348 99.3268 53.3741 98.5011C53.4177 97.1293 53.4176 95.7487 53.3654 94.3769C53.3393 93.6954 53.4351 92.7736 52.4383 92.6949C51.4067 92.6163 50.8017 93.3633 50.7146 94.2852C50.584 95.6483 50.645 97.0332 50.6537 98.405C50.6624 99.139 50.5753 99.6326 49.6264 99.6326C48.6427 99.637 48.6253 99.0865 48.6383 98.3832C48.6601 97.374 48.647 96.3604 48.647 95.3468Z" fill="#fff" />
  <path d="M66.4149 95.3466C66.4149 94.5515 66.4367 93.752 66.4105 92.9568C66.3583 91.4583 66.7065 90.6544 68.2605 91.8253C68.8655 92.2797 69.0614 91.5719 69.4444 91.4103C71.4293 90.5496 72.9484 91.384 73.0964 93.5423C73.2095 95.1981 73.1268 96.8713 73.153 98.5359C73.1617 99.1824 73.0877 99.6237 72.2476 99.6368C71.3814 99.6543 71.1202 99.3354 71.1463 98.5053C71.1942 97.1335 71.1899 95.7529 71.1376 94.3811C71.1115 93.6995 71.2073 92.7777 70.2105 92.6991C69.1789 92.6204 68.5739 93.3675 68.4868 94.285C68.3562 95.648 68.4172 97.033 68.4259 98.4048C68.4346 99.1344 68.3519 99.6324 67.3986 99.6324C66.4149 99.6368 66.3975 99.0863 66.4105 98.383C66.428 97.3737 66.4149 96.3602 66.4149 95.3466Z" fill="#fff" />
  <path d="M57.2088 95.4209C57.248 92.9481 58.7845 91.0783 60.7911 91.0608C62.8761 91.0389 64.2429 92.4981 64.4649 94.7699C64.5693 95.8447 64.2646 96.2291 63.2069 96.1374C62.4931 96.0762 61.7618 96.05 61.0567 96.1505C60.53 96.2248 59.5898 95.6481 59.555 96.7359C59.5288 97.6534 60.2253 98.1121 61.0828 98.265C61.2873 98.3 61.5093 98.2476 61.727 98.2476C62.4669 98.2388 63.6335 97.0549 63.8381 98.4223C64.0252 99.6936 62.4844 99.6456 61.5659 99.7636C58.9499 100.096 57.1609 98.2694 57.2088 95.4209ZM62.4321 94.7263C62.4104 93.5205 62.1884 92.5637 60.7911 92.6336C59.7813 92.686 59.198 93.6035 59.555 94.2588C60.1643 95.386 61.4092 94.6389 62.4321 94.7263Z" fill="#fff" />
  <path d="M25.9995 79.8637C25.9908 77.4084 27.4925 75.4861 29.4817 75.3987C31.5798 75.307 32.9683 76.7225 33.2469 79.003C33.3949 80.1914 33.0423 80.5933 31.8932 80.4753C31.2533 80.4098 30.5873 80.3792 29.9562 80.4884C29.386 80.5846 28.3109 79.9292 28.3718 81.1831C28.424 82.1879 29.2293 82.6117 30.2043 82.6117C30.4176 82.6117 30.6309 82.5549 30.8398 82.5069C31.471 82.3539 32.3328 81.5938 32.6331 82.6641C32.9335 83.7432 31.8061 83.7957 31.0966 83.9661C28.1324 84.6956 26.0083 82.97 25.9995 79.8637ZM31.2272 79.0642C31.2054 77.8584 30.9834 76.9016 29.5862 76.9715C28.5764 77.0239 27.9931 77.9414 28.35 78.5967C28.9594 79.7283 30.1999 78.9812 31.2272 79.0642Z" fill="#fff" />
  <path d="M3.54814 75.3767C3.86154 75.4422 4.21846 75.499 4.56233 75.5952C5.27183 75.7917 6.39919 75.735 6.1772 76.8184C5.9465 77.9412 5.08031 77.2247 4.4274 77.0806C3.7179 76.9233 2.79947 76.8053 2.59054 77.6747C2.39902 78.4699 3.29568 78.5922 3.89201 78.8106C4.43175 79.0072 4.99325 79.182 5.48076 79.4747C7.23057 80.532 7.2088 82.6902 5.40241 83.6644C3.98342 84.429 2.48607 84.4115 1.04966 83.6644C0.666622 83.4634 -0.0602866 83.328 0.344519 82.6115C0.592625 82.1659 0.975667 81.7946 1.58505 82.1659C1.82881 82.3144 2.09868 82.4455 2.37725 82.5067C3.16945 82.6902 4.13576 82.8474 4.46657 81.9518C4.86267 80.864 3.8006 80.7286 3.07804 80.4708C1.68517 79.9771 0.200878 79.4834 0.444632 77.5917C0.666622 75.8748 2.10303 75.5908 3.54814 75.3767Z" fill="#fff" />
  <path d="M11.1045 84.1975C9.4766 84.1232 8.59734 83.3193 8.48417 81.7946C8.40582 80.7199 8.46676 79.632 8.43194 78.5529C8.41453 77.9457 8.59734 77.3253 7.6615 77.0369C6.83448 76.7792 6.76048 76.0277 7.67021 75.735C8.30135 75.5341 8.47982 75.2763 8.43629 74.704C8.36664 73.7603 9.05873 73.7123 9.70729 73.6249C10.6214 73.5069 10.6518 74.1972 10.5343 74.7389C10.1861 76.3554 12.493 74.9661 12.3363 76.434C12.2145 77.6049 10.3558 76.5826 10.5343 78.0636C10.6605 79.1296 10.5691 80.2218 10.5561 81.3053C10.5474 81.9737 10.7868 82.5155 11.505 82.4456C12.2885 82.3669 12.9153 82.5242 12.7673 83.3674C12.6236 84.2892 11.6356 83.9878 11.1045 84.1975Z" fill="#fff" />
  <path d="M0.000670271 95.4342C0.0529032 92.2536 2.6689 90.2483 5.33714 91.3668C5.77241 91.5503 6.41662 91.6988 6.24251 92.3585C6.0771 92.9832 5.62442 93.3196 4.91927 92.9614C4.0139 92.5027 3.15206 92.6425 2.65585 93.5119C1.97682 94.7046 2.01164 96.0502 2.56444 97.2734C2.9823 98.204 3.87897 98.3263 4.78869 97.9419C5.43725 97.671 5.97699 97.7933 6.19898 98.4443C6.46885 99.2351 5.75065 99.3967 5.24138 99.5889C2.47738 100.629 -0.0472099 98.619 0.000670271 95.4342Z" fill="#fff" />
  <path d="M24.1062 77.6748C24.5197 79.2782 23.2095 81.5194 25.2466 83.1664C25.5948 83.446 25.264 83.9397 24.7199 84.0533C23.3923 84.3198 22.2867 84.0184 22.2258 82.5067C22.0952 79.4092 22.1387 76.303 22.1039 73.2011C22.0952 72.4496 22.5043 72.253 23.1877 72.2006C24.0365 72.1351 24.1236 72.5894 24.1149 73.2491C24.0931 74.6166 24.1062 75.9884 24.1062 77.6748Z" fill="#fff" />
  <path d="M43.6544 24.353C43.2452 23.7763 42.8404 23.204 42.4313 22.6273C42.3834 22.0026 42.3399 21.3778 42.292 20.7531C44.6599 18.3109 47.2062 16.0784 50.1226 14.309C51.1629 13.6799 52.2772 12.8455 53.4873 13.811C54.7452 14.8202 53.9182 16.0566 53.6048 17.1968C53.4307 17.8303 53.1608 18.4157 52.6559 18.8657C52.6863 18.0793 52.6689 17.2842 52.7647 16.5022C52.8518 15.8032 53.2696 15.043 52.4034 14.593C51.6504 14.1998 51.0192 14.7153 50.4316 15.1042C48.3902 16.4454 46.5142 17.9876 44.8209 19.7614C43.9983 20.622 43.2104 21.439 43.6631 22.7628C44.155 24.2088 45.3476 24.3661 46.6186 24.3792C45.9875 25.1525 45.1474 24.7156 44.39 24.7724C44.1463 24.6326 43.9025 24.4928 43.6544 24.353Z" fill="#fff" />
  <path d="M47.4152 43.4143C47.8548 41.6536 49.4479 40.8716 50.584 39.7182C51.781 38.495 53.1347 37.4202 54.4144 36.2756C54.9367 35.8081 55.4677 35.5023 56.1076 36.0746C55.9335 37.3328 54.8845 37.9489 54.101 38.7309C52.769 40.0634 51.7157 41.5313 51.3326 43.4143C50.0268 43.4143 48.721 43.4143 47.4152 43.4143Z" fill="#fff" />
  <path d="M62.11 28.3025C61.3221 27.2015 60.6213 27.2671 59.7203 28.2806C58.9237 29.1806 57.8791 29.8534 56.9868 30.6748C56.2555 31.3476 55.4285 32.0291 55.8289 33.2305C56.2468 34.4844 57.3611 34.5936 58.4232 34.7684C58.7018 34.8121 58.9934 34.7946 59.2763 34.8077C59.2154 34.9431 59.1544 35.0829 59.0979 35.2184L59.1457 35.1965C58.7845 35.2402 58.4145 35.2533 58.2142 35.6378C58.2142 35.6378 58.2142 35.5766 58.2186 35.5766C56.6516 35.7164 55.7898 34.6766 54.941 33.6063C54.8974 32.9029 54.6537 32.1908 55.0716 31.518C55.1412 31.3126 55.2065 31.1073 55.2761 30.9063L55.2413 30.9194C55.4067 30.7665 55.5678 30.6136 55.7332 30.4607C57.4438 29.0496 59.1544 27.6428 60.8694 26.2316C63.0589 25.7074 63.6595 23.6759 64.7477 22.1118C64.6389 22.8895 64.4387 23.6671 64.4517 24.4404C64.4691 25.4889 63.1851 26.3103 63.9773 27.4549C63.3505 27.7389 62.728 28.0185 62.11 28.3025Z" fill="#fff" />
  <path d="M61.7618 21.0457C61.5093 19.7482 62.4713 17.9308 61.1306 17.2317C59.6507 16.4584 58.6061 18.2322 57.4656 18.9967C56.1598 19.8749 55.0542 21.0501 53.8311 22.0506C52.3729 23.2389 51.5764 24.6413 52.177 26.5723L51.9986 26.5942L51.8201 26.5898C51.5677 26.1442 51.3152 25.6942 51.0627 25.2486C50.9017 24.5889 50.893 23.9467 51.2194 23.3263C51.3196 23.2564 51.3631 23.1646 51.3457 23.0423C51.8332 22.7714 52.09 22.3214 52.2946 21.8278C54.3404 20.255 56.3339 18.6036 58.4581 17.14C59.5724 16.3667 60.8564 15.0473 62.3146 16.2051C63.7597 17.3453 62.6062 18.8176 62.2972 20.1327C62.2145 20.4603 61.9403 20.7399 61.7618 21.0457Z" fill="#fff" />
  <path d="M69.0308 0.101555C68.7044 1.43405 68.4519 2.7884 68.0341 4.09031C67.6162 5.3966 67.8295 6.35338 69.1135 6.96502C69.4618 7.35385 69.9319 7.38443 70.4063 7.39754C70.402 7.54608 70.3976 7.69462 70.3932 7.83879C68.4824 7.70772 69.0482 9.65623 68.2212 10.4383C68.7653 8.4679 68.2604 7.03492 66.5019 5.77669C64.6346 4.43982 66.3844 2.85393 66.6499 1.36852C66.911 -0.134363 67.9035 -0.103781 69.0308 0.101555Z" fill="#fff" />
  <path fill-rule="evenodd" clip-rule="evenodd" d="M70.3802 0.0797055C69.9307 0.087351 69.4813 0.0949965 69.0308 0.10155C68.9328 0.50149 68.8411 0.903399 68.7494 1.30515C68.5357 2.24193 68.3221 3.17784 68.0297 4.08594C67.6118 5.39223 67.8251 6.34901 69.1092 6.96064C69.9623 6.84705 70.2713 6.28347 70.4411 5.50145C70.7332 4.15784 71.0585 2.82136 71.3837 1.485C71.4995 1.00938 71.6153 0.533771 71.7295 0.0578613C71.279 0.0644146 70.8296 0.07206 70.3802 0.0797055ZM66.1362 19.0886C66.1572 17.9476 66.449 16.8646 66.7409 15.7812C66.8726 15.2924 67.0043 14.8035 67.1112 14.3091C67.8693 13.9967 67.8289 13.4259 67.7885 12.8557C67.772 12.6228 67.7556 12.39 67.7934 12.175C68.2329 11.7933 68.2275 11.3 68.2221 10.8056V10.8054V10.8053V10.8053C68.2208 10.6813 68.2194 10.5572 68.2251 10.4348C68.5168 10.1546 68.6329 9.72626 68.7491 9.29767C68.9575 8.52884 69.1661 7.75933 70.3889 7.8432C70.5847 7.96553 70.7763 8.08786 70.9678 8.21455C71.0342 8.88544 70.8313 9.52724 70.6283 10.169C70.3528 11.04 70.0774 11.9109 70.4759 12.8543C70.1891 13.8134 69.9015 14.7732 69.6138 15.7335L69.6097 15.7471L69.5997 15.7807L69.5982 15.7856L69.598 15.7861L69.5979 15.7865L69.5978 15.787C69.1792 17.184 68.7604 18.5819 68.3431 19.9799C68.1464 19.9238 67.9426 19.885 67.7387 19.8462C67.1482 19.7338 66.5568 19.6212 66.1362 19.0886ZM68.2251 10.4348L68.2168 10.4427L68.2255 10.4252L68.2251 10.4348ZM67.7934 12.175L67.7859 12.1815L67.7946 12.1684L67.7934 12.175ZM52.6558 18.8657L52.6556 18.8663C52.4772 19.2986 52.2988 19.7309 52.1248 20.1632C51.7575 20.5372 51.303 20.8025 50.8487 21.0677C50.1723 21.4625 49.4963 21.8572 49.1083 22.6098C48.6926 22.9047 48.278 23.1996 47.8635 23.4945C47.4488 23.7894 47.0342 24.0843 46.6185 24.3792C45.3475 24.3617 44.1549 24.2088 43.663 22.7627C43.2186 21.4462 43.9889 20.6362 44.7994 19.7839L44.8209 19.7613C46.5141 17.9876 48.3901 16.4454 50.4315 15.1041C50.4893 15.0663 50.5474 15.0272 50.606 14.9878C51.1436 14.6263 51.7204 14.2384 52.4033 14.593C53.0903 14.9498 52.9696 15.5017 52.8469 16.0635C52.8148 16.2102 52.7826 16.3575 52.7646 16.5021C52.7 17.0299 52.6889 17.5635 52.6778 18.0965C52.6725 18.3533 52.6671 18.61 52.6558 18.8657ZM60.7824 23.0817C59.3634 23.9249 58.075 24.9254 56.9476 26.1312C56.5621 26.049 56.2649 26.2325 55.9699 26.4146C55.8885 26.4648 55.8073 26.5149 55.7245 26.5593H52.177V26.5724C51.5763 24.6414 52.3729 23.239 53.831 22.0507C54.2901 21.6765 54.7316 21.2772 55.1727 20.8783C55.9109 20.2106 56.6482 19.5438 57.4656 18.9968C57.7748 18.7895 58.077 18.508 58.3827 18.2232C59.2045 17.4577 60.0519 16.6682 61.1306 17.2318C62.0033 17.6884 61.8976 18.6219 61.7896 19.5761C61.7322 20.083 61.6741 20.5957 61.7617 21.0458C61.7 21.3865 61.4896 21.656 61.2794 21.9254C61.015 22.264 60.7508 22.6024 60.7824 23.0817ZM60.2774 34.5718L60.2777 34.5715L60.2778 34.5714L60.2779 34.5713C60.3332 34.5048 60.3886 34.4384 60.4428 34.3708C60.4124 34.0694 60.5908 33.9558 60.8433 33.9165L60.8651 33.899C61.7791 32.8811 62.7759 31.9636 64.0078 31.3432C64.0488 30.9257 64.2694 30.5777 64.4899 30.2298C64.761 29.8021 65.0321 29.3745 64.9697 28.818C64.6458 28.7572 64.3129 28.7493 63.9801 28.7414C63.3335 28.726 62.6876 28.7107 62.11 28.3069C61.3221 27.2059 60.6213 27.2715 59.7203 28.285C59.234 28.8318 58.6553 29.2971 58.0752 29.7636C57.705 30.0612 57.3343 30.3592 56.9868 30.6792L56.9375 30.7246L56.8752 30.782C56.175 31.4262 55.4487 32.0943 55.8289 33.2349C56.2305 34.4274 57.254 34.5885 58.2668 34.748C58.319 34.7562 58.3711 34.7644 58.4232 34.7728C58.6118 34.8019 58.8024 34.8038 58.9937 34.8058H58.9938C59.0893 34.8068 59.185 34.8077 59.2807 34.8121L60.112 34.7728C60.1664 34.7051 60.2219 34.6385 60.2774 34.5718ZM63.9686 27.455C63.4828 26.7504 63.7777 26.169 64.0745 25.584C64.2618 25.2149 64.4497 24.8444 64.443 24.4405C64.4341 23.9114 64.527 23.3803 64.6201 22.8486L64.6201 22.8486L64.6201 22.8485C64.663 22.6031 64.706 22.3575 64.739 22.1119C64.6606 21.6968 64.8957 21.474 65.2309 21.3124C66.4148 20.9017 67.5813 20.5478 68.169 22.1774C68.0703 23.425 67.4077 24.3853 66.7449 25.3457C66.4724 25.7407 66.1998 26.1356 65.9665 26.5506C65.122 26.4502 64.5214 26.8958 63.9686 27.455ZM69.1092 6.96504C69.4574 7.35387 69.9275 7.38008 70.4019 7.39755C71.5293 7.46309 72.0516 6.83834 72.3258 5.81603C72.7122 4.35761 73.1287 2.90421 73.5448 1.45203C73.6771 0.990149 73.8094 0.528387 73.9407 0.0666247C73.2051 0.0622559 72.4651 0.0622559 71.7295 0.0622559C71.5937 0.633867 71.4548 1.20504 71.3159 1.77633C71.0142 3.0171 70.7123 4.2584 70.4411 5.50584C70.2713 6.28787 69.9579 6.85145 69.1092 6.96504Z" fill="#fff" />
  <path d="M31.458 39.1108C34.7966 36.4109 38.3441 33.9643 41.3997 30.9149L41.391 30.9105C41.6521 30.8756 41.9177 30.8406 42.1788 30.8057C42.2267 30.8668 42.2789 30.9324 42.3268 30.9935C40.7772 33.7372 37.8304 34.9561 35.7063 37.0793C34.4396 38.3419 32.8944 39.3162 31.4754 40.4215C31.4624 39.9846 31.458 39.5477 31.458 39.1108Z" fill="#fff" />
  <path d="M70.402 7.39748C71.5293 7.46302 72.0517 6.83827 72.3259 5.81159C72.8352 3.8893 73.401 1.97574 73.9407 0.0621862C74.8548 0.00539116 74.7199 0.682563 74.7199 1.2243C74.7242 2.57864 74.7025 3.93299 74.6894 5.28733C74.4457 7.54166 72.4608 7.55476 70.9678 8.20572C70.7763 8.08339 70.5804 7.96107 70.3889 7.83437C70.3933 7.69457 70.3976 7.54603 70.402 7.39748Z" fill="#fff" />
  <path d="M50.4663 35.655C50.3706 36.7123 49.5392 37.1885 48.8297 37.7696C46.588 39.6088 44.2071 41.2865 42.2135 43.4228C41.652 43.4272 41.0905 43.4316 40.5247 43.4359C43.5281 40.4433 46.8013 37.7958 50.4663 35.655Z" fill="#fff" />
  <path d="M42.2962 20.7485C42.3398 21.3733 42.3877 21.998 42.4355 22.6228C40.0198 22.5966 39.1318 24.9033 37.4212 25.9693C35.3188 27.28 33.6909 29.2722 31.4623 30.443C31.2098 29.4819 32.0499 29.2328 32.5592 28.8047C35.7932 26.1091 39.0491 23.4354 42.2962 20.7485Z" fill="#fff" />
  <path d="M60.8651 33.8946C61.7748 32.8723 62.7716 31.9592 64.0078 31.3389C64.8 34.5937 63.2678 36.8742 60.9043 38.8052C60.9522 37.8266 61.5485 37.1276 62.0708 36.363C63.0676 34.9039 62.7368 34.2835 60.8651 33.8946Z" fill="#fff" />
  <path d="M70.9678 8.2099C72.4608 7.55894 74.4456 7.54146 74.6894 5.2915C74.6981 6.81186 75.4946 8.84775 72.5783 8.40212C71.9384 8.30601 71.8253 8.91328 71.6642 9.39822C71.2812 10.556 70.872 11.705 70.4759 12.854C69.7838 11.2113 71.1245 9.79142 70.9678 8.2099Z" fill="#fff" />
  <path d="M54.8062 43.4185C56.4384 41.6185 58.4363 40.3166 60.5561 39.1895C59.1676 41.3171 57.901 43.6195 54.8062 43.4185Z" fill="#fff" />
  <path d="M63.9687 27.4547C64.5215 26.8955 65.1221 26.4499 65.9709 26.5504C66.0101 27.4678 65.5618 28.1712 64.9741 28.8134C64.0209 28.6343 62.9893 28.9139 62.1144 28.3023C62.7281 28.0183 63.3506 27.7387 63.9687 27.4547Z" fill="#fff" />
  <path d="M52.2903 21.8323C52.0857 22.3259 51.8289 22.7759 51.3414 23.0468C50.9496 21.0721 49.8353 22.8458 49.1084 22.6143C49.757 21.3561 51.2108 21.0983 52.1249 20.1677C52.1814 20.7226 52.238 21.2774 52.2903 21.8323Z" fill="#fff" />
  <path d="M68.169 22.1772C67.5814 20.5476 66.4149 20.9015 65.2309 21.3121C65.0438 20.3728 66.0493 19.9185 66.1363 19.0884C66.7065 19.8049 67.5771 19.7612 68.3475 19.9753C68.2866 20.7092 68.23 21.4432 68.169 22.1772Z" fill="#fff" />
  <path d="M67.7947 12.1638C67.6598 12.9065 68.1865 13.8633 67.1113 14.3046C67.3377 13.5924 67.564 12.8803 67.7947 12.1638Z" fill="#fff" />
  <path d="M68.2255 10.4207C68.1951 11.0367 68.3474 11.6964 67.7859 12.1769C67.7903 11.5566 67.7163 10.9143 68.2255 10.4207Z" fill="#fff" />
  <path d="M55.0717 31.5222C54.6538 32.195 54.8976 32.9071 54.9411 33.6105C53.9965 33.3266 53.3567 33.829 52.743 34.445C52.1075 35.0828 51.5068 35.8037 50.4578 35.6683C51.1977 34.8032 51.9377 33.9338 52.6777 33.0688C52.8169 32.9421 52.9519 32.8154 53.0868 32.6843C53.7484 32.2955 54.4101 31.9067 55.0717 31.5222Z" fill="#fff" />
  <path d="M55.0716 31.5222C54.4099 31.911 53.7527 32.2955 53.0911 32.6843C53.2608 31.3999 54.0443 30.8756 55.2761 30.9106C55.2065 31.1115 55.1369 31.3169 55.0716 31.5222Z" fill="#fff" />
  <path d="M55.7202 26.5636C56.1076 26.3582 56.4515 26.0306 56.9433 26.1354C56.8345 27.1839 56.112 27.4068 55.2283 27.4111L55.1979 27.3631C55.3763 27.0922 55.5504 26.8257 55.7202 26.5636Z" fill="#fff" />
  <path d="M55.2326 27.4111C54.9497 27.5553 54.6668 27.6951 54.3838 27.8393C54.3316 27.7737 54.2837 27.7038 54.2358 27.6339C54.5579 27.5422 54.8801 27.4504 55.2022 27.3631C55.2022 27.3587 55.2326 27.4111 55.2326 27.4111Z" fill="#fff" />
  <path d="M55.7289 30.4607C55.5679 30.6136 55.4025 30.7665 55.2371 30.9194C55.4025 30.7665 55.5635 30.6136 55.7289 30.4607Z" fill="#FFCF4A" />
  <path d="M55.2022 27.3586C54.8801 27.4503 54.558 27.5421 54.2359 27.6295C53.4698 27.4241 52.5514 27.5159 52.1727 26.5591C53.3567 26.5591 54.5363 26.5591 55.7202 26.5591C55.5505 26.8256 55.3763 27.0921 55.2022 27.3586Z" fill="#fff" />
  <path d="M51.215 23.3262C50.8886 23.9422 50.8973 24.5888 51.0583 25.2485C49.9136 25.0693 49.2389 25.8164 48.5076 26.5067C47.698 27.2712 47.0581 28.3067 45.761 28.346C45.7088 28.2848 45.6609 28.228 45.613 28.1669C46.2224 27.4897 46.8318 26.8125 47.4412 26.1353C48.7035 25.196 49.9614 24.2611 51.215 23.3262Z" fill="#fff" />
  <path d="M44.0592 29.6699C43.8372 30.5874 43.1582 30.8932 42.3181 30.9893C42.2702 30.9282 42.2223 30.8626 42.1744 30.8015C42.4922 30.3995 42.8056 30.002 43.1233 29.6V29.6044C43.3758 29.5563 43.6326 29.5127 43.8851 29.4646C43.9417 29.5389 44.0026 29.6044 44.0592 29.6699Z" fill="#fff" />
  <path d="M45.7654 28.3417C45.5783 29.0014 45.0908 29.2067 44.4683 29.2111L44.3334 29.0844C44.3638 28.9577 44.39 28.831 44.403 28.7043C44.8078 28.5208 45.2083 28.3417 45.6131 28.1582C45.6653 28.2237 45.7132 28.2849 45.7654 28.3417Z" fill="#fff" />
  <path d="M44.4683 29.2112C44.3333 29.3641 44.1941 29.517 44.0591 29.6699C43.9982 29.6044 43.9416 29.5389 43.885 29.4733C44.033 29.3466 44.1853 29.2156 44.3333 29.0889L44.4683 29.2112Z" fill="#fff" />
  <path d="M51.2151 23.3262C49.9572 24.2611 48.7036 25.196 47.4456 26.131C47.2846 25.4189 46.845 25.2048 46.1833 25.4363C45.3955 25.7159 44.7948 25.5193 44.39 24.7723C45.1474 24.7111 45.9875 25.1524 46.6186 24.3791C47.45 23.7893 48.2814 23.1995 49.1084 22.6097C49.8353 22.8369 50.9496 21.0631 51.3413 23.0422C51.3588 23.1645 51.3152 23.2563 51.2151 23.3262Z" fill="#fff" />
  <path d="M59.0979 35.2183C59.1588 35.0829 59.2154 34.9431 59.2764 34.8076C59.5549 34.7945 59.8292 34.7814 60.1077 34.7683C59.7726 34.9212 59.4374 35.0698 59.0979 35.2183Z" fill="#fff" />
  <path d="M58.2144 35.6375C58.4146 35.2531 58.7846 35.24 59.1458 35.1963C58.8368 35.3448 58.5234 35.4934 58.2144 35.6375Z" fill="#fff" />
  <path d="M60.4428 34.3706C60.4124 34.0691 60.5908 33.9599 60.8476 33.9119C60.7127 34.0648 60.5778 34.2177 60.4428 34.3706Z" fill="#fff" />
  <path d="M44.3899 24.7724C44.7947 25.5195 45.3954 25.7161 46.1832 25.4365C46.8492 25.2006 47.2888 25.419 47.4455 26.1311C46.8361 26.8083 46.2268 27.4855 45.6174 28.1626C45.2126 28.3418 44.8121 28.5253 44.4073 28.7087C43.7718 28.7087 43.2234 28.8398 43.1233 29.6087V29.6044C42.1831 29.5563 41.4823 29.8315 41.3865 30.9106L41.3952 30.915C39.9849 30.8233 39.0883 31.9067 37.9565 32.4485C37.1861 32.8155 36.3112 33.532 35.6975 32.6757C35.21 31.9941 36.259 31.5179 36.6986 31.0199C37.678 29.9102 38.9881 29.0451 39.2014 27.4068C39.7673 26.5243 40.4898 25.7991 41.3735 25.2355C42.1308 25.1044 43.1276 25.5981 43.4802 24.4185L43.6543 24.3486C43.9024 24.4928 44.1462 24.6326 44.3899 24.7724Z" fill="#fff" />
  <path d="M43.4803 24.4184C43.1277 25.598 42.1309 25.1044 41.3735 25.2354C41.8393 24.3442 42.6358 24.318 43.4803 24.4184Z" fill="#fff" />
  <path d="M41.3866 30.9106C41.4824 29.8315 42.1831 29.5562 43.1233 29.6043C42.8056 30.0062 42.4922 30.4038 42.1744 30.8057C41.9133 30.8407 41.6521 30.8756 41.3866 30.9106Z" fill="#fff" />
  <path d="M43.1233 29.6087C43.2191 28.8354 43.7675 28.7087 44.4073 28.7087C44.3899 28.8354 44.3682 28.9621 44.3377 29.0888C44.1897 29.2155 44.0374 29.3466 43.8894 29.4733C43.6326 29.517 43.3758 29.565 43.1233 29.6087Z" fill="#fff" />
</svg>
